<svg width="220" height="48" viewBox="0 0 220 48" fill="none" xmlns="http://www.w3.org/2000/svg">
<g clip-path="url(#clip0_1_509)">
<path d="M14 24V27.45C14 30.299 14.698 31.455 15.606 32.394C16.546 33.303 17.704 34.002 20.552 34.002H27.448C30.296 34.002 31.454 33.302 32.394 32.394C33.302 31.455 34 30.3 34 27.45V20.552C34 17.703 33.302 16.546 32.394 15.607C31.454 14.7 30.296 14 27.448 14H20.552C17.704 14 16.546 14.699 15.606 15.607C14.698 16.547 14 17.703 14 20.552V24Z" stroke="#262626" stroke-width="2" stroke-linecap="round" stroke-linejoin="round"/>
<path d="M18.5449 24.001H29.4549" stroke="#262626" stroke-width="2" stroke-linecap="round" stroke-linejoin="round"/>
<path d="M24.0029 18.5449V29.4549" stroke="#262626" stroke-width="2" stroke-linecap="round" stroke-linejoin="round"/>
</g>
<g clip-path="url(#clip1_1_509)">
<path d="M59.6758 25.6089H61.082C61.0088 26.2827 60.8159 26.8857 60.5034 27.418C60.1909 27.9502 59.749 28.3726 59.1777 28.6851C58.6064 28.9927 57.8936 29.1465 57.0391 29.1465C56.4141 29.1465 55.8452 29.0293 55.3325 28.7949C54.8247 28.5605 54.3877 28.2285 54.0215 27.7988C53.6553 27.3643 53.3721 26.8442 53.1719 26.2388C52.9766 25.6284 52.8789 24.9497 52.8789 24.2026V23.1406C52.8789 22.3936 52.9766 21.7173 53.1719 21.1118C53.3721 20.5015 53.6577 19.979 54.0288 19.5444C54.4048 19.1099 54.8564 18.7754 55.3838 18.541C55.9111 18.3066 56.5044 18.1895 57.1636 18.1895C57.9692 18.1895 58.6504 18.3408 59.207 18.6436C59.7637 18.9463 60.1958 19.3662 60.5034 19.9033C60.8159 20.4355 61.0088 21.0532 61.082 21.7563H59.6758C59.6074 21.2583 59.4805 20.8311 59.2949 20.4746C59.1094 20.1133 58.8457 19.835 58.5039 19.6396C58.1621 19.4443 57.7153 19.3467 57.1636 19.3467C56.6899 19.3467 56.2725 19.437 55.9111 19.6177C55.5547 19.7983 55.2544 20.0547 55.0103 20.3867C54.771 20.7188 54.5903 21.1167 54.4683 21.5806C54.3462 22.0444 54.2852 22.5596 54.2852 23.126V24.2026C54.2852 24.7251 54.3389 25.2158 54.4463 25.6748C54.5586 26.1338 54.7271 26.5366 54.9517 26.8833C55.1763 27.23 55.4619 27.5034 55.8086 27.7036C56.1553 27.8989 56.5654 27.9966 57.0391 27.9966C57.6396 27.9966 58.1182 27.9014 58.4746 27.7109C58.8311 27.5205 59.0996 27.2471 59.2803 26.8906C59.4658 26.5342 59.5977 26.1069 59.6758 25.6089ZM64.1582 22.3203V29H62.8032V21.0752H64.1216L64.1582 22.3203ZM66.6338 21.0312L66.6265 22.291C66.5142 22.2666 66.4067 22.252 66.3042 22.2471C66.2065 22.2373 66.0942 22.2324 65.9673 22.2324C65.6548 22.2324 65.3789 22.2812 65.1396 22.3789C64.9004 22.4766 64.6978 22.6133 64.5317 22.7891C64.3657 22.9648 64.2339 23.1748 64.1362 23.4189C64.0435 23.6582 63.9824 23.9219 63.9531 24.21L63.5723 24.4297C63.5723 23.9512 63.6187 23.502 63.7114 23.082C63.8091 22.6621 63.958 22.291 64.1582 21.9688C64.3584 21.6416 64.6123 21.3877 64.9199 21.207C65.2324 21.0215 65.6035 20.9287 66.0332 20.9287C66.1309 20.9287 66.2432 20.9409 66.3701 20.9653C66.4971 20.9849 66.585 21.0068 66.6338 21.0312ZM71.0283 29.1465C70.4766 29.1465 69.9761 29.0537 69.5269 28.8682C69.0825 28.6777 68.6992 28.4116 68.377 28.0698C68.0596 27.728 67.8154 27.3228 67.6445 26.854C67.4736 26.3853 67.3882 25.8726 67.3882 25.3159V25.0083C67.3882 24.3638 67.4834 23.79 67.6738 23.2871C67.8643 22.7793 68.123 22.3496 68.4502 21.998C68.7773 21.6465 69.1484 21.3804 69.5635 21.1997C69.9785 21.019 70.4082 20.9287 70.8525 20.9287C71.4189 20.9287 71.9072 21.0264 72.3174 21.2217C72.7324 21.417 73.0718 21.6904 73.3354 22.042C73.5991 22.3887 73.7944 22.7988 73.9214 23.2725C74.0483 23.7412 74.1118 24.2539 74.1118 24.8105V25.4185H68.1938V24.3125H72.7568V24.21C72.7373 23.8584 72.6641 23.5166 72.5371 23.1846C72.415 22.8525 72.2197 22.5791 71.9512 22.3643C71.6826 22.1494 71.3164 22.042 70.8525 22.042C70.5449 22.042 70.2617 22.1079 70.0029 22.2397C69.7441 22.3667 69.522 22.5571 69.3364 22.811C69.1509 23.0649 69.0068 23.375 68.9043 23.7412C68.8018 24.1074 68.7505 24.5298 68.7505 25.0083V25.3159C68.7505 25.6919 68.8018 26.0459 68.9043 26.3779C69.0117 26.7051 69.1655 26.9932 69.3657 27.2422C69.5708 27.4912 69.8174 27.6865 70.1055 27.8281C70.3984 27.9697 70.7305 28.0405 71.1016 28.0405C71.5801 28.0405 71.9854 27.9429 72.3174 27.7476C72.6494 27.5522 72.9399 27.291 73.189 26.9639L74.0093 27.6157C73.8384 27.8745 73.6211 28.1211 73.3574 28.3555C73.0938 28.5898 72.769 28.7803 72.3833 28.9268C72.0024 29.0732 71.5508 29.1465 71.0283 29.1465ZM80.3667 27.645V23.5654C80.3667 23.2529 80.3032 22.9819 80.1763 22.7524C80.0542 22.5181 79.8687 22.3374 79.6196 22.2104C79.3706 22.0835 79.063 22.02 78.6968 22.02C78.355 22.02 78.0547 22.0786 77.7959 22.1958C77.542 22.313 77.3418 22.4668 77.1953 22.6572C77.0537 22.8477 76.9829 23.0527 76.9829 23.2725H75.6279C75.6279 22.9893 75.7012 22.7085 75.8477 22.4302C75.9941 22.1519 76.2041 21.9004 76.4775 21.6758C76.7559 21.4463 77.0879 21.2656 77.4736 21.1338C77.8643 20.9971 78.2988 20.9287 78.7773 20.9287C79.3535 20.9287 79.8613 21.0264 80.3008 21.2217C80.7451 21.417 81.0918 21.7124 81.3408 22.1079C81.5947 22.4985 81.7217 22.9893 81.7217 23.5801V27.2715C81.7217 27.5352 81.7437 27.8159 81.7876 28.1138C81.8364 28.4116 81.9072 28.668 82 28.8828V29H80.5864C80.5181 28.8438 80.4644 28.6362 80.4253 28.3774C80.3862 28.1138 80.3667 27.8696 80.3667 27.645ZM80.6011 24.1953L80.6157 25.1475H79.2461C78.8604 25.1475 78.5161 25.1792 78.2134 25.2427C77.9106 25.3013 77.6567 25.3916 77.4517 25.5137C77.2466 25.6357 77.0903 25.7896 76.9829 25.9751C76.8755 26.1558 76.8218 26.3682 76.8218 26.6123C76.8218 26.8613 76.8779 27.0884 76.9902 27.2935C77.1025 27.4985 77.271 27.6621 77.4956 27.7842C77.7251 27.9014 78.0059 27.96 78.3379 27.96C78.7529 27.96 79.1191 27.8721 79.4365 27.6963C79.7539 27.5205 80.0054 27.3057 80.1909 27.0518C80.3813 26.7979 80.4839 26.5513 80.4985 26.312L81.0771 26.9639C81.043 27.1689 80.9502 27.396 80.7988 27.645C80.6475 27.894 80.4448 28.1333 80.1909 28.3628C79.9419 28.5874 79.644 28.7754 79.2974 28.9268C78.9556 29.0732 78.5698 29.1465 78.1401 29.1465C77.603 29.1465 77.1318 29.0415 76.7266 28.8315C76.3262 28.6216 76.0137 28.3408 75.7891 27.9893C75.5693 27.6328 75.4595 27.2349 75.4595 26.7954C75.4595 26.3706 75.5425 25.9971 75.7085 25.6748C75.8745 25.3477 76.1138 25.0767 76.4263 24.8618C76.7388 24.6421 77.1147 24.4761 77.5542 24.3638C77.9937 24.2515 78.4844 24.1953 79.0264 24.1953H80.6011ZM87.1709 21.0752V22.1152H82.8862V21.0752H87.1709ZM84.3364 19.1489H85.6914V27.0371C85.6914 27.3057 85.7329 27.5083 85.8159 27.645C85.8989 27.7817 86.0063 27.8721 86.1382 27.916C86.27 27.96 86.4116 27.9819 86.563 27.9819C86.6753 27.9819 86.7925 27.9722 86.9146 27.9526C87.0415 27.9282 87.1367 27.9087 87.2002 27.894L87.2075 29C87.1001 29.0342 86.9585 29.0659 86.7827 29.0952C86.6118 29.1294 86.4043 29.1465 86.1602 29.1465C85.8281 29.1465 85.5229 29.0806 85.2446 28.9487C84.9663 28.8169 84.7441 28.5972 84.5781 28.2896C84.417 27.9771 84.3364 27.5571 84.3364 27.0298V19.1489ZM92.0488 29.1465C91.4971 29.1465 90.9966 29.0537 90.5474 28.8682C90.103 28.6777 89.7197 28.4116 89.3975 28.0698C89.0801 27.728 88.8359 27.3228 88.665 26.854C88.4941 26.3853 88.4087 25.8726 88.4087 25.3159V25.0083C88.4087 24.3638 88.5039 23.79 88.6943 23.2871C88.8848 22.7793 89.1436 22.3496 89.4707 21.998C89.7979 21.6465 90.1689 21.3804 90.584 21.1997C90.999 21.019 91.4287 20.9287 91.873 20.9287C92.4395 20.9287 92.9277 21.0264 93.3379 21.2217C93.7529 21.417 94.0923 21.6904 94.356 22.042C94.6196 22.3887 94.8149 22.7988 94.9419 23.2725C95.0688 23.7412 95.1323 24.2539 95.1323 24.8105V25.4185H89.2144V24.3125H93.7773V24.21C93.7578 23.8584 93.6846 23.5166 93.5576 23.1846C93.4355 22.8525 93.2402 22.5791 92.9717 22.3643C92.7031 22.1494 92.3369 22.042 91.873 22.042C91.5654 22.042 91.2822 22.1079 91.0234 22.2397C90.7646 22.3667 90.5425 22.5571 90.3569 22.811C90.1714 23.0649 90.0273 23.375 89.9248 23.7412C89.8223 24.1074 89.771 24.5298 89.771 25.0083V25.3159C89.771 25.6919 89.8223 26.0459 89.9248 26.3779C90.0322 26.7051 90.186 26.9932 90.3862 27.2422C90.5913 27.4912 90.8379 27.6865 91.126 27.8281C91.4189 27.9697 91.751 28.0405 92.1221 28.0405C92.6006 28.0405 93.0059 27.9429 93.3379 27.7476C93.6699 27.5522 93.9604 27.291 94.2095 26.9639L95.0298 27.6157C94.8589 27.8745 94.6416 28.1211 94.3779 28.3555C94.1143 28.5898 93.7896 28.7803 93.4038 28.9268C93.0229 29.0732 92.5713 29.1465 92.0488 29.1465Z" fill="#262626"/>
</g>
<defs>
<clipPath id="clip0_1_509">
<rect width="24" height="24" fill="white" transform="translate(12 12)"/>
</clipPath>
<clipPath id="clip1_1_509">
<rect width="61.7656" height="24" fill="white" transform="translate(36 12)"/>
</clipPath>
</defs>
</svg>
