<svg width="220" height="48" viewBox="0 0 220 48" fill="none" xmlns="http://www.w3.org/2000/svg">
<g clip-path="url(#clip0_1_474)">
<path d="M25.9411 25.953L19.5811 28.424L22.0601 22.056L28.4201 19.585L25.9411 25.953Z" stroke="#262626" stroke-width="2" stroke-linecap="round" stroke-linejoin="round"/>
<path fill-rule="evenodd" clip-rule="evenodd" d="M22.0601 22.056L25.9491 25.945L19.5811 28.424L22.0601 22.056Z" fill="#262626"/>
<path d="M24.001 34.505C29.8 34.505 34.501 29.804 34.501 24.005C34.501 18.206 29.8 13.505 24.001 13.505C18.202 13.505 13.501 18.206 13.501 24.005C13.501 29.804 18.202 34.505 24.001 34.505Z" stroke="#262626" stroke-width="2" stroke-linecap="round" stroke-linejoin="round"/>
</g>
<g clip-path="url(#clip1_1_474)">
<path d="M60.0127 27.8501V29H54.3657V27.8501H60.0127ZM54.6514 18.3359V29H53.2378V18.3359H54.6514ZM59.2656 22.9209V24.0708H54.3657V22.9209H59.2656ZM59.9395 18.3359V19.4932H54.3657V18.3359H59.9395ZM62.4736 21.0752L64.2095 23.9609L65.9673 21.0752H67.5566L64.9639 24.9863L67.6372 29H66.0698L64.2388 26.0264L62.4077 29H60.833L63.499 24.9863L60.9136 21.0752H62.4736ZM70.3545 22.5986V32.0469H68.9922V21.0752H70.2373L70.3545 22.5986ZM75.6938 24.9717V25.1255C75.6938 25.7017 75.6255 26.2363 75.4888 26.7295C75.3521 27.2178 75.1519 27.6426 74.8882 28.0039C74.6294 28.3652 74.3096 28.646 73.9287 28.8462C73.5479 29.0464 73.1108 29.1465 72.6177 29.1465C72.1147 29.1465 71.6704 29.0635 71.2847 28.8975C70.8989 28.7314 70.5718 28.4897 70.3032 28.1724C70.0347 27.855 69.8198 27.4741 69.6587 27.0298C69.5024 26.5854 69.395 26.085 69.3364 25.5283V24.708C69.395 24.1221 69.5049 23.5972 69.666 23.1333C69.8271 22.6694 70.0396 22.2739 70.3032 21.9468C70.5718 21.6147 70.8965 21.3633 71.2773 21.1924C71.6582 21.0166 72.0977 20.9287 72.5957 20.9287C73.0938 20.9287 73.5356 21.0264 73.9214 21.2217C74.3071 21.4121 74.6318 21.6855 74.8955 22.042C75.1592 22.3984 75.3569 22.8257 75.4888 23.3237C75.6255 23.8169 75.6938 24.3662 75.6938 24.9717ZM74.3315 25.1255V24.9717C74.3315 24.5762 74.29 24.2051 74.207 23.8584C74.124 23.5068 73.9946 23.1992 73.8188 22.9355C73.6479 22.667 73.4282 22.457 73.1597 22.3057C72.8911 22.1494 72.5713 22.0713 72.2002 22.0713C71.8584 22.0713 71.5605 22.1299 71.3066 22.2471C71.0576 22.3643 70.8452 22.5229 70.6694 22.7231C70.4937 22.9185 70.3496 23.1431 70.2373 23.397C70.1299 23.646 70.0493 23.9048 69.9956 24.1733V26.0703C70.0933 26.4121 70.23 26.7344 70.4058 27.0371C70.5815 27.335 70.8159 27.5767 71.1089 27.7622C71.4019 27.9429 71.7705 28.0332 72.2148 28.0332C72.5811 28.0332 72.896 27.9575 73.1597 27.8062C73.4282 27.6499 73.6479 27.4375 73.8188 27.1689C73.9946 26.9004 74.124 26.5928 74.207 26.2461C74.29 25.8945 74.3315 25.521 74.3315 25.1255ZM78.8945 17.75V29H77.5322V17.75H78.8945ZM80.7109 25.1255V24.957C80.7109 24.3857 80.7939 23.856 80.96 23.3677C81.126 22.8745 81.3652 22.4473 81.6777 22.0859C81.9902 21.7197 82.3687 21.4365 82.813 21.2363C83.2573 21.0312 83.7554 20.9287 84.3071 20.9287C84.8638 20.9287 85.3643 21.0312 85.8086 21.2363C86.2578 21.4365 86.6387 21.7197 86.9512 22.0859C87.2686 22.4473 87.5103 22.8745 87.6763 23.3677C87.8423 23.856 87.9253 24.3857 87.9253 24.957V25.1255C87.9253 25.6968 87.8423 26.2266 87.6763 26.7148C87.5103 27.2031 87.2686 27.6304 86.9512 27.9966C86.6387 28.3579 86.2603 28.6411 85.8159 28.8462C85.3765 29.0464 84.8784 29.1465 84.3218 29.1465C83.7651 29.1465 83.2646 29.0464 82.8203 28.8462C82.376 28.6411 81.9951 28.3579 81.6777 27.9966C81.3652 27.6304 81.126 27.2031 80.96 26.7148C80.7939 26.2266 80.7109 25.6968 80.7109 25.1255ZM82.0659 24.957V25.1255C82.0659 25.521 82.1123 25.8945 82.2051 26.2461C82.2979 26.5928 82.437 26.9004 82.6226 27.1689C82.813 27.4375 83.0498 27.6499 83.333 27.8062C83.6162 27.9575 83.9458 28.0332 84.3218 28.0332C84.6929 28.0332 85.0176 27.9575 85.2959 27.8062C85.5791 27.6499 85.8135 27.4375 85.999 27.1689C86.1846 26.9004 86.3237 26.5928 86.4165 26.2461C86.5142 25.8945 86.563 25.521 86.563 25.1255V24.957C86.563 24.5664 86.5142 24.1978 86.4165 23.8511C86.3237 23.4995 86.1821 23.1895 85.9917 22.9209C85.8062 22.6475 85.5718 22.4326 85.2886 22.2764C85.0103 22.1201 84.6831 22.042 84.3071 22.042C83.936 22.042 83.6089 22.1201 83.3257 22.2764C83.0474 22.4326 82.813 22.6475 82.6226 22.9209C82.437 23.1895 82.2979 23.4995 82.2051 23.8511C82.1123 24.1978 82.0659 24.5664 82.0659 24.957ZM90.9795 22.3203V29H89.6245V21.0752H90.9429L90.9795 22.3203ZM93.4551 21.0312L93.4478 22.291C93.3354 22.2666 93.228 22.252 93.1255 22.2471C93.0278 22.2373 92.9155 22.2324 92.7886 22.2324C92.4761 22.2324 92.2002 22.2812 91.9609 22.3789C91.7217 22.4766 91.519 22.6133 91.353 22.7891C91.187 22.9648 91.0552 23.1748 90.9575 23.4189C90.8647 23.6582 90.8037 23.9219 90.7744 24.21L90.3936 24.4297C90.3936 23.9512 90.4399 23.502 90.5327 23.082C90.6304 22.6621 90.7793 22.291 90.9795 21.9688C91.1797 21.6416 91.4336 21.3877 91.7412 21.207C92.0537 21.0215 92.4248 20.9287 92.8545 20.9287C92.9521 20.9287 93.0645 20.9409 93.1914 20.9653C93.3184 20.9849 93.4062 21.0068 93.4551 21.0312ZM97.8496 29.1465C97.2979 29.1465 96.7974 29.0537 96.3481 28.8682C95.9038 28.6777 95.5205 28.4116 95.1982 28.0698C94.8809 27.728 94.6367 27.3228 94.4658 26.854C94.2949 26.3853 94.2095 25.8726 94.2095 25.3159V25.0083C94.2095 24.3638 94.3047 23.79 94.4951 23.2871C94.6855 22.7793 94.9443 22.3496 95.2715 21.998C95.5986 21.6465 95.9697 21.3804 96.3848 21.1997C96.7998 21.019 97.2295 20.9287 97.6738 20.9287C98.2402 20.9287 98.7285 21.0264 99.1387 21.2217C99.5537 21.417 99.8931 21.6904 100.157 22.042C100.42 22.3887 100.616 22.7988 100.743 23.2725C100.87 23.7412 100.933 24.2539 100.933 24.8105V25.4185H95.0151V24.3125H99.5781V24.21C99.5586 23.8584 99.4854 23.5166 99.3584 23.1846C99.2363 22.8525 99.041 22.5791 98.7725 22.3643C98.5039 22.1494 98.1377 22.042 97.6738 22.042C97.3662 22.042 97.083 22.1079 96.8242 22.2397C96.5654 22.3667 96.3433 22.5571 96.1577 22.811C95.9722 23.0649 95.8281 23.375 95.7256 23.7412C95.623 24.1074 95.5718 24.5298 95.5718 25.0083V25.3159C95.5718 25.6919 95.623 26.0459 95.7256 26.3779C95.833 26.7051 95.9868 26.9932 96.187 27.2422C96.3921 27.4912 96.6387 27.6865 96.9268 27.8281C97.2197 27.9697 97.5518 28.0405 97.9229 28.0405C98.4014 28.0405 98.8066 27.9429 99.1387 27.7476C99.4707 27.5522 99.7612 27.291 100.01 26.9639L100.831 27.6157C100.66 27.8745 100.442 28.1211 100.179 28.3555C99.915 28.5898 99.5903 28.7803 99.2046 28.9268C98.8237 29.0732 98.3721 29.1465 97.8496 29.1465Z" fill="#262626"/>
</g>
<defs>
<clipPath id="clip0_1_474">
<rect width="24" height="24" fill="white" transform="translate(12 12)"/>
</clipPath>
<clipPath id="clip1_1_474">
<rect width="68.0312" height="24" fill="white" transform="translate(36 12)"/>
</clipPath>
</defs>
</svg>
