<svg width="12" height="11" viewBox="0 0 12 11" fill="none" xmlns="http://www.w3.org/2000/svg">
<path d="M8.39608 1.37388C9.0533 1.41021 9.66952 1.70483 10.1105 2.19353C10.5514 2.68223 10.7813 3.3254 10.7501 3.98288C10.7501 5.51888 9.42408 6.46238 8.15158 7.59388C6.89558 8.71538 6.21908 9.32838 6.00008 9.46988C5.76158 9.31538 4.92858 8.55838 3.84858 7.59388C2.57058 6.45788 1.25008 5.50538 1.25008 3.98288C1.21887 3.3254 1.44878 2.68223 1.88971 2.19353C2.33065 1.70483 2.94687 1.41021 3.60408 1.37388C3.96816 1.36284 4.32886 1.44647 4.65094 1.61658C4.97302 1.78669 5.24544 2.03746 5.44158 2.34438C5.86158 2.93188 5.93158 3.22588 6.00158 3.22588C6.07158 3.22588 6.14058 2.93188 6.55658 2.34288C6.75161 2.03454 7.02414 1.78277 7.34693 1.61273C7.66973 1.44269 8.03149 1.36033 8.39608 1.37388ZM8.39608 0.373877C7.94205 0.35934 7.49058 0.447418 7.07531 0.631552C6.66003 0.815686 6.29165 1.09113 5.99758 1.43738C5.70377 1.09214 5.33614 0.81733 4.92186 0.633253C4.50757 0.449175 4.05722 0.360533 3.60408 0.373877C2.68152 0.409952 1.81077 0.809868 1.18225 1.48617C0.553733 2.16248 0.21858 3.06014 0.250083 3.98288C0.250083 5.78788 1.52508 6.89638 2.75758 7.96788C2.89908 8.09088 3.04208 8.21488 3.18408 8.34138L3.69758 8.80038C4.2576 9.33326 4.84472 9.83693 5.45658 10.3094C5.61847 10.4142 5.80722 10.47 6.00008 10.47C6.19295 10.47 6.38169 10.4142 6.54358 10.3094C7.17493 9.82251 7.78011 9.30262 8.35658 8.75188L8.81758 8.33988C8.96408 8.20988 9.11258 8.08038 9.26008 7.95288C10.4271 6.94038 11.7501 5.79288 11.7501 3.98288C11.7816 3.06014 11.4464 2.16248 10.8179 1.48617C10.1894 0.809868 9.31865 0.409952 8.39608 0.373877Z" fill="#8E8E8E"/>
</svg>
