<svg width="220" height="48" viewBox="0 0 220 48" fill="none" xmlns="http://www.w3.org/2000/svg">
<g clip-path="url(#clip0_1_459)">
<path d="M34 35.0001H27.999C27.7338 35.0001 27.4794 34.8947 27.2919 34.7072C27.1044 34.5196 26.999 34.2653 26.999 34.0001V28.5451C27.0063 28.1469 26.9341 27.7514 26.7868 27.3814C26.6395 27.0115 26.4199 26.6747 26.141 26.3906C25.862 26.1064 25.5292 25.8808 25.162 25.7267C24.7949 25.5727 24.4007 25.4933 24.0025 25.4933C23.6043 25.4933 23.2101 25.5727 22.843 25.7267C22.4758 25.8808 22.143 26.1064 21.864 26.3906C21.5851 26.6747 21.3655 27.0115 21.2182 27.3814C21.0709 27.7514 20.9987 28.1469 21.006 28.5451V34.0001C21.006 34.2653 20.9006 34.5196 20.7131 34.7072C20.5256 34.8947 20.2712 35.0001 20.006 35.0001H14C13.7348 35.0001 13.4804 34.8947 13.2929 34.7072C13.1054 34.5196 13 34.2653 13 34.0001V23.5431C13.0001 23.4077 13.0276 23.2738 13.0809 23.1493C13.1342 23.0249 13.2121 22.9125 13.31 22.8191L23.31 13.2761C23.4961 13.099 23.7431 13.0002 24 13.0002C24.2569 13.0002 24.5039 13.099 24.69 13.2761L34.69 22.8191C34.7879 22.9125 34.8658 23.0249 34.9191 23.1493C34.9724 23.2738 34.9999 23.4077 35 23.5431V34.0001C35 34.2653 34.8946 34.5196 34.7071 34.7072C34.5196 34.8947 34.2652 35.0001 34 35.0001Z" fill="#262626"/>
</g>
<g clip-path="url(#clip1_1_459)">
<path d="M60.6016 22.2578V24.0859H54.6641V22.2578H60.6016ZM55.3594 17.625V29H53.0156V17.625H55.3594ZM62.2734 17.625V29H59.9375V17.625H62.2734ZM63.8125 24.8594V24.6953C63.8125 24.0755 63.901 23.5052 64.0781 22.9844C64.2552 22.4583 64.513 22.0026 64.8516 21.6172C65.1901 21.2318 65.6068 20.9323 66.1016 20.7188C66.5964 20.5 67.1641 20.3906 67.8047 20.3906C68.4453 20.3906 69.0156 20.5 69.5156 20.7188C70.0156 20.9323 70.4349 21.2318 70.7734 21.6172C71.1172 22.0026 71.3776 22.4583 71.5547 22.9844C71.7318 23.5052 71.8203 24.0755 71.8203 24.6953V24.8594C71.8203 25.474 71.7318 26.0443 71.5547 26.5703C71.3776 27.0911 71.1172 27.5469 70.7734 27.9375C70.4349 28.3229 70.0182 28.6224 69.5234 28.8359C69.0286 29.0495 68.4609 29.1562 67.8203 29.1562C67.1797 29.1562 66.6094 29.0495 66.1094 28.8359C65.6146 28.6224 65.1953 28.3229 64.8516 27.9375C64.513 27.5469 64.2552 27.0911 64.0781 26.5703C63.901 26.0443 63.8125 25.474 63.8125 24.8594ZM66.0625 24.6953V24.8594C66.0625 25.2135 66.0938 25.5443 66.1562 25.8516C66.2188 26.1589 66.3177 26.4297 66.4531 26.6641C66.5938 26.8932 66.776 27.0729 67 27.2031C67.224 27.3333 67.4974 27.3984 67.8203 27.3984C68.1328 27.3984 68.401 27.3333 68.625 27.2031C68.849 27.0729 69.0286 26.8932 69.1641 26.6641C69.2995 26.4297 69.3984 26.1589 69.4609 25.8516C69.5286 25.5443 69.5625 25.2135 69.5625 24.8594V24.6953C69.5625 24.3516 69.5286 24.0286 69.4609 23.7266C69.3984 23.4193 69.2969 23.1484 69.1562 22.9141C69.0208 22.6745 68.8411 22.487 68.6172 22.3516C68.3932 22.2161 68.1224 22.1484 67.8047 22.1484C67.487 22.1484 67.2161 22.2161 66.9922 22.3516C66.7734 22.487 66.5938 22.6745 66.4531 22.9141C66.3177 23.1484 66.2188 23.4193 66.1562 23.7266C66.0938 24.0286 66.0625 24.3516 66.0625 24.6953ZM75.4531 22.2969V29H73.1953V20.5469H75.3125L75.4531 22.2969ZM75.1406 24.4766H74.5156C74.5156 23.888 74.5859 23.3464 74.7266 22.8516C74.8724 22.3516 75.0833 21.9193 75.3594 21.5547C75.6406 21.1849 75.987 20.8984 76.3984 20.6953C76.8099 20.4922 77.2865 20.3906 77.8281 20.3906C78.2031 20.3906 78.5469 20.4479 78.8594 20.5625C79.1719 20.6719 79.4401 20.8464 79.6641 21.0859C79.8932 21.3203 80.0703 21.6276 80.1953 22.0078C80.3203 22.3828 80.3828 22.8333 80.3828 23.3594V29H78.1328V23.6094C78.1328 23.224 78.0807 22.9271 77.9766 22.7188C77.8724 22.5104 77.724 22.3646 77.5312 22.2812C77.3438 22.1979 77.1172 22.1562 76.8516 22.1562C76.5599 22.1562 76.3047 22.2161 76.0859 22.3359C75.8724 22.4557 75.6953 22.6224 75.5547 22.8359C75.4141 23.0443 75.3099 23.2891 75.2422 23.5703C75.1745 23.8516 75.1406 24.1536 75.1406 24.4766ZM80.1719 24.2188L79.3672 24.3203C79.3672 23.7682 79.4349 23.2552 79.5703 22.7812C79.7109 22.3073 79.9167 21.8906 80.1875 21.5312C80.4635 21.1719 80.8047 20.8932 81.2109 20.6953C81.6172 20.4922 82.0859 20.3906 82.6172 20.3906C83.0234 20.3906 83.3932 20.4505 83.7266 20.5703C84.0599 20.6849 84.3438 20.8698 84.5781 21.125C84.8177 21.375 85 21.7031 85.125 22.1094C85.2552 22.5156 85.3203 23.013 85.3203 23.6016V29H83.0625V23.6016C83.0625 23.2109 83.0104 22.9141 82.9062 22.7109C82.8073 22.5026 82.6615 22.3594 82.4688 22.2812C82.2812 22.1979 82.0573 22.1562 81.7969 22.1562C81.526 22.1562 81.2891 22.2109 81.0859 22.3203C80.8828 22.4245 80.7135 22.5703 80.5781 22.7578C80.4427 22.9453 80.3411 23.1641 80.2734 23.4141C80.2057 23.6589 80.1719 23.9271 80.1719 24.2188ZM90.9531 29.1562C90.2969 29.1562 89.7083 29.0521 89.1875 28.8438C88.6667 28.6302 88.224 28.3359 87.8594 27.9609C87.5 27.5859 87.224 27.151 87.0312 26.6562C86.8385 26.1562 86.7422 25.625 86.7422 25.0625V24.75C86.7422 24.1094 86.8333 23.5234 87.0156 22.9922C87.1979 22.4609 87.4583 22 87.7969 21.6094C88.1406 21.2188 88.5573 20.9193 89.0469 20.7109C89.5365 20.4974 90.0885 20.3906 90.7031 20.3906C91.3021 20.3906 91.8333 20.4896 92.2969 20.6875C92.7604 20.8854 93.1484 21.1667 93.4609 21.5312C93.7786 21.8958 94.0182 22.3333 94.1797 22.8438C94.3411 23.349 94.4219 23.9115 94.4219 24.5312V25.4688H87.7031V23.9688H92.2109V23.7969C92.2109 23.4844 92.1536 23.2057 92.0391 22.9609C91.9297 22.7109 91.763 22.513 91.5391 22.3672C91.3151 22.2214 91.0286 22.1484 90.6797 22.1484C90.3828 22.1484 90.1276 22.2135 89.9141 22.3438C89.7005 22.474 89.526 22.6562 89.3906 22.8906C89.2604 23.125 89.1615 23.401 89.0938 23.7188C89.0312 24.0312 89 24.375 89 24.75V25.0625C89 25.401 89.0469 25.7135 89.1406 26C89.2396 26.2865 89.3776 26.5339 89.5547 26.7422C89.737 26.9505 89.9557 27.112 90.2109 27.2266C90.4714 27.3411 90.7656 27.3984 91.0938 27.3984C91.5 27.3984 91.8776 27.3203 92.2266 27.1641C92.5807 27.0026 92.8854 26.7604 93.1406 26.4375L94.2344 27.625C94.0573 27.8802 93.8151 28.125 93.5078 28.3594C93.2057 28.5938 92.8411 28.7865 92.4141 28.9375C91.987 29.0833 91.5 29.1562 90.9531 29.1562Z" fill="#262626"/>
</g>
<defs>
<clipPath id="clip0_1_459">
<rect width="24" height="24" fill="white" transform="translate(12 12)"/>
</clipPath>
<clipPath id="clip1_1_459">
<rect width="61.3594" height="24" fill="white" transform="translate(36 12)"/>
</clipPath>
</defs>
</svg>
