<svg width="220" height="48" viewBox="0 0 220 48" fill="none" xmlns="http://www.w3.org/2000/svg">
<g clip-path="url(#clip0_1_494)">
<path d="M24.0032 14.001C25.3032 13.9592 26.5984 14.1792 27.8117 14.6479C29.025 15.1166 30.1318 15.8244 31.0661 16.7293C32.0005 17.6341 32.7435 18.7176 33.2508 19.9152C33.7582 21.1129 34.0197 22.4003 34.0197 23.701C34.0197 25.0017 33.7582 26.2891 33.2508 27.4868C32.7435 28.6844 32.0005 29.7679 31.0661 30.6727C30.1318 31.5776 29.025 32.2854 27.8117 32.754C26.5984 33.2227 25.3032 33.4427 24.0032 33.401C23.0253 33.4037 22.0515 33.2745 21.1082 33.017C20.9312 32.9687 20.743 32.9828 20.5752 33.057L18.5912 33.933C18.4712 33.9857 18.3402 34.0082 18.2095 33.9985C18.0788 33.9888 17.9525 33.9472 17.8416 33.8773C17.7308 33.8074 17.6387 33.7114 17.5736 33.5977C17.5085 33.4839 17.4723 33.356 17.4682 33.225L17.4142 31.445C17.4097 31.3369 17.3835 31.2308 17.3371 31.133C17.2907 31.0353 17.2251 30.9478 17.1442 30.876C16.1404 29.9723 15.341 28.8649 14.7995 27.6275C14.258 26.3902 13.9869 25.0515 14.0042 23.701C13.9966 22.3995 14.2523 21.11 14.756 19.9099C15.2597 18.7099 16.001 17.6241 16.9351 16.7179C17.8693 15.8118 18.9772 15.1039 20.192 14.637C21.4068 14.1701 22.7026 13.9538 24.0032 14.001Z" stroke="#262626" stroke-width="1.739" stroke-miterlimit="10"/>
<path fill-rule="evenodd" clip-rule="evenodd" d="M29.7901 22.132C29.8736 22.0008 29.9081 21.8444 29.8875 21.6903C29.8668 21.5362 29.7923 21.3944 29.6772 21.2899C29.562 21.1854 29.4137 21.125 29.2583 21.1193C29.1029 21.1137 28.9505 21.1631 28.8281 21.259L26.2721 23.309C26.1631 23.3915 26.0302 23.4364 25.8934 23.4367C25.7567 23.4371 25.6235 23.3929 25.5141 23.311L23.0601 21.47C22.886 21.3396 22.6868 21.2467 22.4751 21.1971C22.2633 21.1475 22.0436 21.1423 21.8297 21.1817C21.6158 21.2212 21.4124 21.3045 21.2323 21.4264C21.0522 21.5482 20.8992 21.7061 20.7831 21.89L18.2161 25.87C18.1318 26.001 18.0967 26.1576 18.1169 26.3121C18.1372 26.4666 18.2115 26.6089 18.3267 26.7138C18.4419 26.8187 18.5905 26.8793 18.7462 26.8851C18.9019 26.8908 19.0545 26.8411 19.1771 26.745L21.7331 24.696C21.8422 24.6132 21.9753 24.5682 22.1123 24.5678C22.2492 24.5675 22.3826 24.6118 22.4921 24.694L24.9441 26.534C25.1182 26.6645 25.3175 26.7575 25.5293 26.8072C25.7412 26.8569 25.9611 26.8622 26.1751 26.8228C26.3891 26.7833 26.5926 26.7 26.7728 26.578C26.953 26.456 27.106 26.298 27.2221 26.114L29.7901 22.132Z" fill="#262626"/>
</g>
<g clip-path="url(#clip1_1_494)">
<path d="M53.6846 18.3359H55.0542L58.5479 27.0298L62.0342 18.3359H63.4111L59.0752 29H58.0059L53.6846 18.3359ZM53.2378 18.3359H54.4463L54.644 24.8398V29H53.2378V18.3359ZM62.6421 18.3359H63.8506V29H62.4443V24.8398L62.6421 18.3359ZM69.417 29.1465C68.8652 29.1465 68.3647 29.0537 67.9155 28.8682C67.4712 28.6777 67.0879 28.4116 66.7656 28.0698C66.4482 27.728 66.2041 27.3228 66.0332 26.854C65.8623 26.3853 65.7769 25.8726 65.7769 25.3159V25.0083C65.7769 24.3638 65.8721 23.79 66.0625 23.2871C66.2529 22.7793 66.5117 22.3496 66.8389 21.998C67.166 21.6465 67.5371 21.3804 67.9521 21.1997C68.3672 21.019 68.7969 20.9287 69.2412 20.9287C69.8076 20.9287 70.2959 21.0264 70.7061 21.2217C71.1211 21.417 71.4604 21.6904 71.7241 22.042C71.9878 22.3887 72.1831 22.7988 72.3101 23.2725C72.437 23.7412 72.5005 24.2539 72.5005 24.8105V25.4185H66.5825V24.3125H71.1455V24.21C71.126 23.8584 71.0527 23.5166 70.9258 23.1846C70.8037 22.8525 70.6084 22.5791 70.3398 22.3643C70.0713 22.1494 69.7051 22.042 69.2412 22.042C68.9336 22.042 68.6504 22.1079 68.3916 22.2397C68.1328 22.3667 67.9106 22.5571 67.7251 22.811C67.5396 23.0649 67.3955 23.375 67.293 23.7412C67.1904 24.1074 67.1392 24.5298 67.1392 25.0083V25.3159C67.1392 25.6919 67.1904 26.0459 67.293 26.3779C67.4004 26.7051 67.5542 26.9932 67.7544 27.2422C67.9595 27.4912 68.2061 27.6865 68.4941 27.8281C68.7871 27.9697 69.1191 28.0405 69.4902 28.0405C69.9688 28.0405 70.374 27.9429 70.7061 27.7476C71.0381 27.5522 71.3286 27.291 71.5776 26.9639L72.3979 27.6157C72.2271 27.8745 72.0098 28.1211 71.7461 28.3555C71.4824 28.5898 71.1577 28.7803 70.772 28.9268C70.3911 29.0732 69.9395 29.1465 69.417 29.1465ZM78.6968 26.8979C78.6968 26.7026 78.6528 26.522 78.5649 26.356C78.4819 26.1851 78.3086 26.0312 78.0449 25.8945C77.7861 25.7529 77.3955 25.6309 76.873 25.5283C76.4336 25.4355 76.0356 25.3257 75.6792 25.1987C75.3276 25.0718 75.0273 24.918 74.7783 24.7373C74.5342 24.5566 74.3462 24.3442 74.2144 24.1001C74.0825 23.856 74.0166 23.5703 74.0166 23.2432C74.0166 22.9307 74.085 22.6353 74.2217 22.3569C74.3633 22.0786 74.561 21.832 74.8149 21.6172C75.0737 21.4023 75.3838 21.2339 75.7451 21.1118C76.1064 20.9897 76.5093 20.9287 76.9536 20.9287C77.5884 20.9287 78.1304 21.041 78.5796 21.2656C79.0288 21.4902 79.373 21.7905 79.6123 22.1665C79.8516 22.5376 79.9712 22.9502 79.9712 23.4043H78.6162C78.6162 23.1846 78.5503 22.9722 78.4185 22.7671C78.2915 22.5571 78.1035 22.3838 77.8545 22.2471C77.6104 22.1104 77.3101 22.042 76.9536 22.042C76.5776 22.042 76.2725 22.1006 76.0381 22.2178C75.8086 22.3301 75.6401 22.4741 75.5327 22.6499C75.4302 22.8257 75.3789 23.0112 75.3789 23.2065C75.3789 23.353 75.4033 23.4849 75.4521 23.6021C75.5059 23.7144 75.5986 23.8193 75.7305 23.917C75.8623 24.0098 76.0479 24.0977 76.2871 24.1807C76.5264 24.2637 76.8315 24.3467 77.2026 24.4297C77.8521 24.5762 78.3867 24.752 78.8066 24.957C79.2266 25.1621 79.5391 25.4136 79.7441 25.7114C79.9492 26.0093 80.0518 26.3706 80.0518 26.7954C80.0518 27.1421 79.9785 27.4595 79.832 27.7476C79.6904 28.0356 79.4829 28.2847 79.2095 28.4946C78.9409 28.6997 78.6187 28.8608 78.2427 28.978C77.8716 29.0903 77.4541 29.1465 76.9902 29.1465C76.292 29.1465 75.7012 29.022 75.2178 28.7729C74.7344 28.5239 74.3682 28.2017 74.1191 27.8062C73.8701 27.4106 73.7456 26.9932 73.7456 26.5537H75.1079C75.1274 26.9248 75.2349 27.2202 75.4302 27.4399C75.6255 27.6548 75.8647 27.8086 76.1479 27.9014C76.4312 27.9893 76.7119 28.0332 76.9902 28.0332C77.3613 28.0332 77.6714 27.9844 77.9204 27.8867C78.1743 27.7891 78.3672 27.6548 78.499 27.4839C78.6309 27.313 78.6968 27.1177 78.6968 26.8979ZM86.4458 26.8979C86.4458 26.7026 86.4019 26.522 86.314 26.356C86.231 26.1851 86.0576 26.0312 85.7939 25.8945C85.5352 25.7529 85.1445 25.6309 84.6221 25.5283C84.1826 25.4355 83.7847 25.3257 83.4282 25.1987C83.0767 25.0718 82.7764 24.918 82.5273 24.7373C82.2832 24.5566 82.0952 24.3442 81.9634 24.1001C81.8315 23.856 81.7656 23.5703 81.7656 23.2432C81.7656 22.9307 81.834 22.6353 81.9707 22.3569C82.1123 22.0786 82.3101 21.832 82.564 21.6172C82.8228 21.4023 83.1328 21.2339 83.4941 21.1118C83.8555 20.9897 84.2583 20.9287 84.7026 20.9287C85.3374 20.9287 85.8794 21.041 86.3286 21.2656C86.7778 21.4902 87.1221 21.7905 87.3613 22.1665C87.6006 22.5376 87.7202 22.9502 87.7202 23.4043H86.3652C86.3652 23.1846 86.2993 22.9722 86.1675 22.7671C86.0405 22.5571 85.8525 22.3838 85.6035 22.2471C85.3594 22.1104 85.0591 22.042 84.7026 22.042C84.3267 22.042 84.0215 22.1006 83.7871 22.2178C83.5576 22.3301 83.3892 22.4741 83.2817 22.6499C83.1792 22.8257 83.1279 23.0112 83.1279 23.2065C83.1279 23.353 83.1523 23.4849 83.2012 23.6021C83.2549 23.7144 83.3477 23.8193 83.4795 23.917C83.6113 24.0098 83.7969 24.0977 84.0361 24.1807C84.2754 24.2637 84.5806 24.3467 84.9517 24.4297C85.6011 24.5762 86.1357 24.752 86.5557 24.957C86.9756 25.1621 87.2881 25.4136 87.4932 25.7114C87.6982 26.0093 87.8008 26.3706 87.8008 26.7954C87.8008 27.1421 87.7275 27.4595 87.5811 27.7476C87.4395 28.0356 87.2319 28.2847 86.9585 28.4946C86.6899 28.6997 86.3677 28.8608 85.9917 28.978C85.6206 29.0903 85.2031 29.1465 84.7393 29.1465C84.041 29.1465 83.4502 29.022 82.9668 28.7729C82.4834 28.5239 82.1172 28.2017 81.8682 27.8062C81.6191 27.4106 81.4946 26.9932 81.4946 26.5537H82.8569C82.8765 26.9248 82.9839 27.2202 83.1792 27.4399C83.3745 27.6548 83.6138 27.8086 83.897 27.9014C84.1802 27.9893 84.4609 28.0332 84.7393 28.0332C85.1104 28.0332 85.4204 27.9844 85.6694 27.8867C85.9233 27.7891 86.1162 27.6548 86.248 27.4839C86.3799 27.313 86.4458 27.1177 86.4458 26.8979ZM94.2534 27.645V23.5654C94.2534 23.2529 94.1899 22.9819 94.063 22.7524C93.9409 22.5181 93.7554 22.3374 93.5063 22.2104C93.2573 22.0835 92.9497 22.02 92.5835 22.02C92.2417 22.02 91.9414 22.0786 91.6826 22.1958C91.4287 22.313 91.2285 22.4668 91.082 22.6572C90.9404 22.8477 90.8696 23.0527 90.8696 23.2725H89.5146C89.5146 22.9893 89.5879 22.7085 89.7344 22.4302C89.8809 22.1519 90.0908 21.9004 90.3643 21.6758C90.6426 21.4463 90.9746 21.2656 91.3604 21.1338C91.751 20.9971 92.1855 20.9287 92.6641 20.9287C93.2402 20.9287 93.748 21.0264 94.1875 21.2217C94.6318 21.417 94.9785 21.7124 95.2275 22.1079C95.4814 22.4985 95.6084 22.9893 95.6084 23.5801V27.2715C95.6084 27.5352 95.6304 27.8159 95.6743 28.1138C95.7231 28.4116 95.7939 28.668 95.8867 28.8828V29H94.4731C94.4048 28.8438 94.3511 28.6362 94.312 28.3774C94.2729 28.1138 94.2534 27.8696 94.2534 27.645ZM94.4878 24.1953L94.5024 25.1475H93.1328C92.7471 25.1475 92.4028 25.1792 92.1001 25.2427C91.7974 25.3013 91.5435 25.3916 91.3384 25.5137C91.1333 25.6357 90.9771 25.7896 90.8696 25.9751C90.7622 26.1558 90.7085 26.3682 90.7085 26.6123C90.7085 26.8613 90.7646 27.0884 90.877 27.2935C90.9893 27.4985 91.1577 27.6621 91.3823 27.7842C91.6118 27.9014 91.8926 27.96 92.2246 27.96C92.6396 27.96 93.0059 27.8721 93.3232 27.6963C93.6406 27.5205 93.8921 27.3057 94.0776 27.0518C94.2681 26.7979 94.3706 26.5513 94.3853 26.312L94.9639 26.9639C94.9297 27.1689 94.8369 27.396 94.6855 27.645C94.5342 27.894 94.3315 28.1333 94.0776 28.3628C93.8286 28.5874 93.5308 28.7754 93.1841 28.9268C92.8423 29.0732 92.4565 29.1465 92.0269 29.1465C91.4897 29.1465 91.0186 29.0415 90.6133 28.8315C90.2129 28.6216 89.9004 28.3408 89.6758 27.9893C89.4561 27.6328 89.3462 27.2349 89.3462 26.7954C89.3462 26.3706 89.4292 25.9971 89.5952 25.6748C89.7612 25.3477 90.0005 25.0767 90.313 24.8618C90.6255 24.6421 91.0015 24.4761 91.4409 24.3638C91.8804 24.2515 92.3711 24.1953 92.9131 24.1953H94.4878ZM102.874 21.0752H104.104V28.8315C104.104 29.5298 103.963 30.1255 103.68 30.6187C103.396 31.1118 103.001 31.4854 102.493 31.7393C101.99 31.998 101.409 32.1274 100.75 32.1274C100.477 32.1274 100.154 32.0835 99.7832 31.9956C99.417 31.9126 99.0557 31.7686 98.6992 31.5635C98.3477 31.3633 98.0522 31.0923 97.813 30.7505L98.5234 29.9448C98.8555 30.3452 99.2021 30.6235 99.5635 30.7798C99.9297 30.936 100.291 31.0142 100.647 31.0142C101.077 31.0142 101.448 30.9336 101.761 30.7725C102.073 30.6113 102.315 30.3721 102.486 30.0547C102.662 29.7422 102.75 29.3564 102.75 28.8975V22.8184L102.874 21.0752ZM97.4175 25.1255V24.9717C97.4175 24.3662 97.4883 23.8169 97.6299 23.3237C97.7764 22.8257 97.9839 22.3984 98.2524 22.042C98.5259 21.6855 98.8555 21.4121 99.2412 21.2217C99.627 21.0264 100.062 20.9287 100.545 20.9287C101.043 20.9287 101.478 21.0166 101.849 21.1924C102.225 21.3633 102.542 21.6147 102.801 21.9468C103.064 22.2739 103.272 22.6694 103.423 23.1333C103.575 23.5972 103.68 24.1221 103.738 24.708V25.3818C103.685 25.9629 103.58 26.4854 103.423 26.9492C103.272 27.4131 103.064 27.8086 102.801 28.1357C102.542 28.4629 102.225 28.7144 101.849 28.8901C101.473 29.061 101.033 29.1465 100.53 29.1465C100.057 29.1465 99.627 29.0464 99.2412 28.8462C98.8604 28.646 98.5332 28.3652 98.2598 28.0039C97.9863 27.6426 97.7764 27.2178 97.6299 26.7295C97.4883 26.2363 97.4175 25.7017 97.4175 25.1255ZM98.7725 24.9717V25.1255C98.7725 25.521 98.8115 25.8921 98.8896 26.2388C98.9727 26.5854 99.0972 26.8906 99.2632 27.1543C99.4341 27.418 99.6514 27.6255 99.915 27.7769C100.179 27.9233 100.494 27.9966 100.86 27.9966C101.309 27.9966 101.68 27.9014 101.973 27.7109C102.266 27.5205 102.498 27.269 102.669 26.9565C102.845 26.644 102.981 26.3047 103.079 25.9385V24.1733C103.025 23.9048 102.942 23.646 102.83 23.397C102.723 23.1431 102.581 22.9185 102.405 22.7231C102.234 22.5229 102.022 22.3643 101.768 22.2471C101.514 22.1299 101.216 22.0713 100.875 22.0713C100.503 22.0713 100.184 22.1494 99.915 22.3057C99.6514 22.457 99.4341 22.667 99.2632 22.9355C99.0972 23.1992 98.9727 23.5068 98.8896 23.8584C98.8115 24.2051 98.7725 24.5762 98.7725 24.9717ZM109.451 29.1465C108.899 29.1465 108.399 29.0537 107.95 28.8682C107.505 28.6777 107.122 28.4116 106.8 28.0698C106.482 27.728 106.238 27.3228 106.067 26.854C105.896 26.3853 105.811 25.8726 105.811 25.3159V25.0083C105.811 24.3638 105.906 23.79 106.097 23.2871C106.287 22.7793 106.546 22.3496 106.873 21.998C107.2 21.6465 107.571 21.3804 107.986 21.1997C108.401 21.019 108.831 20.9287 109.275 20.9287C109.842 20.9287 110.33 21.0264 110.74 21.2217C111.155 21.417 111.495 21.6904 111.758 22.042C112.022 22.3887 112.217 22.7988 112.344 23.2725C112.471 23.7412 112.535 24.2539 112.535 24.8105V25.4185H106.617V24.3125H111.18V24.21C111.16 23.8584 111.087 23.5166 110.96 23.1846C110.838 22.8525 110.643 22.5791 110.374 22.3643C110.105 22.1494 109.739 22.042 109.275 22.042C108.968 22.042 108.685 22.1079 108.426 22.2397C108.167 22.3667 107.945 22.5571 107.759 22.811C107.574 23.0649 107.43 23.375 107.327 23.7412C107.225 24.1074 107.173 24.5298 107.173 25.0083V25.3159C107.173 25.6919 107.225 26.0459 107.327 26.3779C107.435 26.7051 107.588 26.9932 107.789 27.2422C107.994 27.4912 108.24 27.6865 108.528 27.8281C108.821 27.9697 109.153 28.0405 109.524 28.0405C110.003 28.0405 110.408 27.9429 110.74 27.7476C111.072 27.5522 111.363 27.291 111.612 26.9639L112.432 27.6157C112.261 27.8745 112.044 28.1211 111.78 28.3555C111.517 28.5898 111.192 28.7803 110.806 28.9268C110.425 29.0732 109.974 29.1465 109.451 29.1465ZM118.731 26.8979C118.731 26.7026 118.687 26.522 118.599 26.356C118.516 26.1851 118.343 26.0312 118.079 25.8945C117.82 25.7529 117.43 25.6309 116.907 25.5283C116.468 25.4355 116.07 25.3257 115.713 25.1987C115.362 25.0718 115.062 24.918 114.812 24.7373C114.568 24.5566 114.38 24.3442 114.249 24.1001C114.117 23.856 114.051 23.5703 114.051 23.2432C114.051 22.9307 114.119 22.6353 114.256 22.3569C114.397 22.0786 114.595 21.832 114.849 21.6172C115.108 21.4023 115.418 21.2339 115.779 21.1118C116.141 20.9897 116.543 20.9287 116.988 20.9287C117.623 20.9287 118.165 21.041 118.614 21.2656C119.063 21.4902 119.407 21.7905 119.646 22.1665C119.886 22.5376 120.005 22.9502 120.005 23.4043H118.65C118.65 23.1846 118.584 22.9722 118.453 22.7671C118.326 22.5571 118.138 22.3838 117.889 22.2471C117.645 22.1104 117.344 22.042 116.988 22.042C116.612 22.042 116.307 22.1006 116.072 22.2178C115.843 22.3301 115.674 22.4741 115.567 22.6499C115.464 22.8257 115.413 23.0112 115.413 23.2065C115.413 23.353 115.438 23.4849 115.486 23.6021C115.54 23.7144 115.633 23.8193 115.765 23.917C115.896 24.0098 116.082 24.0977 116.321 24.1807C116.561 24.2637 116.866 24.3467 117.237 24.4297C117.886 24.5762 118.421 24.752 118.841 24.957C119.261 25.1621 119.573 25.4136 119.778 25.7114C119.983 26.0093 120.086 26.3706 120.086 26.7954C120.086 27.1421 120.013 27.4595 119.866 27.7476C119.725 28.0356 119.517 28.2847 119.244 28.4946C118.975 28.6997 118.653 28.8608 118.277 28.978C117.906 29.0903 117.488 29.1465 117.024 29.1465C116.326 29.1465 115.735 29.022 115.252 28.7729C114.769 28.5239 114.402 28.2017 114.153 27.8062C113.904 27.4106 113.78 26.9932 113.78 26.5537H115.142C115.162 26.9248 115.269 27.2202 115.464 27.4399C115.66 27.6548 115.899 27.8086 116.182 27.9014C116.465 27.9893 116.746 28.0332 117.024 28.0332C117.396 28.0332 117.706 27.9844 117.955 27.8867C118.208 27.7891 118.401 27.6548 118.533 27.4839C118.665 27.313 118.731 27.1177 118.731 26.8979Z" fill="#262626"/>
</g>
<defs>
<clipPath id="clip0_1_494">
<rect width="24" height="24" fill="white" transform="translate(12 12)"/>
</clipPath>
<clipPath id="clip1_1_494">
<rect width="85.0312" height="24" fill="white" transform="translate(36 12)"/>
</clipPath>
</defs>
</svg>
