<svg width="220" height="48" viewBox="0 0 220 48" fill="none" xmlns="http://www.w3.org/2000/svg">
<g clip-path="url(#clip0_1_525)">
<path d="M15 16H33" stroke="#262626" stroke-width="2" stroke-linecap="round" stroke-linejoin="round"/>
<path d="M15 24H33" stroke="#262626" stroke-width="2" stroke-linecap="round" stroke-linejoin="round"/>
<path d="M15 32H33" stroke="#262626" stroke-width="2" stroke-linecap="round" stroke-linejoin="round"/>
</g>
<g clip-path="url(#clip1_1_525)">
<path d="M53.7969 17.625H55.2578L58.9844 26.8984L62.7031 17.625H64.1719L59.5469 29H58.4062L53.7969 17.625ZM53.3203 17.625H54.6094L54.8203 24.5625V29H53.3203V17.625ZM63.3516 17.625H64.6406V29H63.1406V24.5625L63.3516 17.625ZM66.6875 24.8672V24.6875C66.6875 24.0781 66.776 23.513 66.9531 22.9922C67.1302 22.4661 67.3854 22.0104 67.7188 21.625C68.0521 21.2344 68.4557 20.9323 68.9297 20.7188C69.4036 20.5 69.9349 20.3906 70.5234 20.3906C71.1172 20.3906 71.651 20.5 72.125 20.7188C72.6042 20.9323 73.0104 21.2344 73.3438 21.625C73.6823 22.0104 73.9401 22.4661 74.1172 22.9922C74.2943 23.513 74.3828 24.0781 74.3828 24.6875V24.8672C74.3828 25.4766 74.2943 26.0417 74.1172 26.5625C73.9401 27.0833 73.6823 27.5391 73.3438 27.9297C73.0104 28.3151 72.6068 28.6172 72.1328 28.8359C71.6641 29.0495 71.1328 29.1562 70.5391 29.1562C69.9453 29.1562 69.4115 29.0495 68.9375 28.8359C68.4635 28.6172 68.0573 28.3151 67.7188 27.9297C67.3854 27.5391 67.1302 27.0833 66.9531 26.5625C66.776 26.0417 66.6875 25.4766 66.6875 24.8672ZM68.1328 24.6875V24.8672C68.1328 25.2891 68.1823 25.6875 68.2812 26.0625C68.3802 26.4323 68.5286 26.7604 68.7266 27.0469C68.9297 27.3333 69.1823 27.5599 69.4844 27.7266C69.7865 27.888 70.138 27.9688 70.5391 27.9688C70.9349 27.9688 71.2812 27.888 71.5781 27.7266C71.8802 27.5599 72.1302 27.3333 72.3281 27.0469C72.526 26.7604 72.6745 26.4323 72.7734 26.0625C72.8776 25.6875 72.9297 25.2891 72.9297 24.8672V24.6875C72.9297 24.2708 72.8776 23.8776 72.7734 23.5078C72.6745 23.1328 72.5234 22.8021 72.3203 22.5156C72.1224 22.224 71.8724 21.9948 71.5703 21.8281C71.2734 21.6615 70.9245 21.5781 70.5234 21.5781C70.1276 21.5781 69.7786 21.6615 69.4766 21.8281C69.1797 21.9948 68.9297 22.224 68.7266 22.5156C68.5286 22.8021 68.3802 23.1328 68.2812 23.5078C68.1823 23.8776 68.1328 24.2708 68.1328 24.6875ZM77.6406 21.875V29H76.1953V20.5469H77.6016L77.6406 21.875ZM80.2812 20.5L80.2734 21.8438C80.1536 21.8177 80.0391 21.8021 79.9297 21.7969C79.8255 21.7865 79.7057 21.7812 79.5703 21.7812C79.237 21.7812 78.9427 21.8333 78.6875 21.9375C78.4323 22.0417 78.2161 22.1875 78.0391 22.375C77.862 22.5625 77.7214 22.7865 77.6172 23.0469C77.5182 23.3021 77.4531 23.5833 77.4219 23.8906L77.0156 24.125C77.0156 23.6146 77.0651 23.1354 77.1641 22.6875C77.2682 22.2396 77.4271 21.8438 77.6406 21.5C77.8542 21.151 78.125 20.8802 78.4531 20.6875C78.7865 20.4896 79.1823 20.3906 79.6406 20.3906C79.7448 20.3906 79.8646 20.4036 80 20.4297C80.1354 20.4505 80.2292 20.474 80.2812 20.5ZM84.9688 29.1562C84.3802 29.1562 83.8464 29.0573 83.3672 28.8594C82.8932 28.6562 82.4844 28.3724 82.1406 28.0078C81.8021 27.6432 81.5417 27.2109 81.3594 26.7109C81.1771 26.2109 81.0859 25.6641 81.0859 25.0703V24.7422C81.0859 24.0547 81.1875 23.4427 81.3906 22.9062C81.5938 22.3646 81.8698 21.9062 82.2188 21.5312C82.5677 21.1562 82.9635 20.8724 83.4062 20.6797C83.849 20.487 84.3073 20.3906 84.7812 20.3906C85.3854 20.3906 85.9062 20.4948 86.3438 20.7031C86.7865 20.9115 87.1484 21.2031 87.4297 21.5781C87.7109 21.9479 87.9193 22.3854 88.0547 22.8906C88.1901 23.3906 88.2578 23.9375 88.2578 24.5312V25.1797H81.9453V24H86.8125V23.8906C86.7917 23.5156 86.7135 23.151 86.5781 22.7969C86.4479 22.4427 86.2396 22.151 85.9531 21.9219C85.6667 21.6927 85.276 21.5781 84.7812 21.5781C84.4531 21.5781 84.151 21.6484 83.875 21.7891C83.599 21.9245 83.362 22.1276 83.1641 22.3984C82.9661 22.6693 82.8125 23 82.7031 23.3906C82.5938 23.7812 82.5391 24.2318 82.5391 24.7422V25.0703C82.5391 25.4714 82.5938 25.849 82.7031 26.2031C82.8177 26.5521 82.9818 26.8594 83.1953 27.125C83.4141 27.3906 83.6771 27.599 83.9844 27.75C84.2969 27.901 84.651 27.9766 85.0469 27.9766C85.5573 27.9766 85.9896 27.8724 86.3438 27.6641C86.6979 27.4557 87.0078 27.1771 87.2734 26.8281L88.1484 27.5234C87.9661 27.7995 87.7344 28.0625 87.4531 28.3125C87.1719 28.5625 86.8255 28.7656 86.4141 28.9219C86.0078 29.0781 85.526 29.1562 84.9688 29.1562Z" fill="#262626"/>
</g>
<defs>
<clipPath id="clip0_1_525">
<rect width="24" height="24" fill="white" transform="translate(12 12)"/>
</clipPath>
<clipPath id="clip1_1_525">
<rect width="53.6719" height="24" fill="white" transform="translate(36 12)"/>
</clipPath>
</defs>
</svg>
