<svg width="220" height="48" viewBox="0 0 220 48" fill="none" xmlns="http://www.w3.org/2000/svg">
<g clip-path="url(#clip0_1_502)">
<path d="M28.7922 15.904C30.1066 15.9766 31.339 16.5659 32.2209 17.5433C33.1028 18.5207 33.5626 19.807 33.5002 21.122C33.5002 24.194 30.8482 26.081 28.3032 28.344C25.7912 30.587 24.4382 31.813 24.0002 32.096C23.5232 31.787 21.8572 30.273 19.6972 28.344C17.1412 26.072 14.5002 24.167 14.5002 21.122C14.4377 19.807 14.8976 18.5207 15.7794 17.5433C16.6613 16.5659 17.8937 15.9766 19.2082 15.904C19.9363 15.8819 20.6577 16.0492 21.3019 16.3894C21.946 16.7296 22.4909 17.2311 22.8832 17.845C23.7232 19.02 23.8632 19.608 24.0032 19.608C24.1432 19.608 24.2812 19.02 25.1132 17.842C25.5032 17.2253 26.0483 16.7218 26.6939 16.3817C27.3395 16.0416 28.063 15.8769 28.7922 15.904ZM28.7922 13.904C27.8841 13.8749 26.9812 14.0511 26.1506 14.4193C25.3201 14.7876 24.5833 15.3385 23.9952 16.031C23.4075 15.3405 22.6723 14.7909 21.8437 14.4227C21.0151 14.0546 20.1144 13.8773 19.2082 13.904C17.363 13.9761 15.6215 14.776 14.3645 16.1286C13.1075 17.4812 12.4372 19.2765 12.5002 21.122C12.5002 24.732 15.0502 26.949 17.5152 29.092C17.7982 29.338 18.0842 29.586 18.3682 29.839L19.3952 30.757C20.5152 31.8227 21.6894 32.8301 22.9132 33.775C23.2369 33.9846 23.6144 34.0962 24.0002 34.0962C24.3859 34.0962 24.7634 33.9846 25.0872 33.775C26.3499 32.8012 27.5602 31.7614 28.7132 30.66L29.6352 29.836C29.9282 29.576 30.2252 29.317 30.5202 29.062C32.8542 27.037 35.5002 24.742 35.5002 21.122C35.5632 19.2765 34.8929 17.4812 33.6358 16.1286C32.3788 14.776 30.6373 13.9761 28.7922 13.904Z" fill="#262626"/>
</g>
<g clip-path="url(#clip1_1_502)">
<path d="M61.4409 18.3359V29H60.02L54.6514 20.7749V29H53.2378V18.3359H54.6514L60.042 26.583V18.3359H61.4409ZM63.3818 25.1255V24.957C63.3818 24.3857 63.4648 23.856 63.6309 23.3677C63.7969 22.8745 64.0361 22.4473 64.3486 22.0859C64.6611 21.7197 65.0396 21.4365 65.4839 21.2363C65.9282 21.0312 66.4263 20.9287 66.978 20.9287C67.5347 20.9287 68.0352 21.0312 68.4795 21.2363C68.9287 21.4365 69.3096 21.7197 69.6221 22.0859C69.9395 22.4473 70.1812 22.8745 70.3472 23.3677C70.5132 23.856 70.5962 24.3857 70.5962 24.957V25.1255C70.5962 25.6968 70.5132 26.2266 70.3472 26.7148C70.1812 27.2031 69.9395 27.6304 69.6221 27.9966C69.3096 28.3579 68.9312 28.6411 68.4868 28.8462C68.0474 29.0464 67.5493 29.1465 66.9927 29.1465C66.436 29.1465 65.9355 29.0464 65.4912 28.8462C65.0469 28.6411 64.666 28.3579 64.3486 27.9966C64.0361 27.6304 63.7969 27.2031 63.6309 26.7148C63.4648 26.2266 63.3818 25.6968 63.3818 25.1255ZM64.7368 24.957V25.1255C64.7368 25.521 64.7832 25.8945 64.876 26.2461C64.9688 26.5928 65.1079 26.9004 65.2935 27.1689C65.4839 27.4375 65.7207 27.6499 66.0039 27.8062C66.2871 27.9575 66.6167 28.0332 66.9927 28.0332C67.3638 28.0332 67.6885 27.9575 67.9668 27.8062C68.25 27.6499 68.4844 27.4375 68.6699 27.1689C68.8555 26.9004 68.9946 26.5928 69.0874 26.2461C69.1851 25.8945 69.2339 25.521 69.2339 25.1255V24.957C69.2339 24.5664 69.1851 24.1978 69.0874 23.8511C68.9946 23.4995 68.853 23.1895 68.6626 22.9209C68.4771 22.6475 68.2427 22.4326 67.9595 22.2764C67.6812 22.1201 67.354 22.042 66.978 22.042C66.6069 22.042 66.2798 22.1201 65.9966 22.2764C65.7183 22.4326 65.4839 22.6475 65.2935 22.9209C65.1079 23.1895 64.9688 23.4995 64.876 23.8511C64.7832 24.1978 64.7368 24.5664 64.7368 24.957ZM75.6133 21.0752V22.1152H71.3286V21.0752H75.6133ZM72.7788 19.1489H74.1338V27.0371C74.1338 27.3057 74.1753 27.5083 74.2583 27.645C74.3413 27.7817 74.4487 27.8721 74.5806 27.916C74.7124 27.96 74.854 27.9819 75.0054 27.9819C75.1177 27.9819 75.2349 27.9722 75.3569 27.9526C75.4839 27.9282 75.5791 27.9087 75.6426 27.894L75.6499 29C75.5425 29.0342 75.4009 29.0659 75.2251 29.0952C75.0542 29.1294 74.8467 29.1465 74.6025 29.1465C74.2705 29.1465 73.9653 29.0806 73.687 28.9487C73.4087 28.8169 73.1865 28.5972 73.0205 28.2896C72.8594 27.9771 72.7788 27.5571 72.7788 27.0298V19.1489ZM78.6748 21.0752V29H77.3125V21.0752H78.6748ZM77.21 18.9731C77.21 18.7534 77.2759 18.5679 77.4077 18.4165C77.5444 18.2651 77.7446 18.1895 78.0083 18.1895C78.2671 18.1895 78.4648 18.2651 78.6016 18.4165C78.7432 18.5679 78.814 18.7534 78.814 18.9731C78.814 19.1831 78.7432 19.3638 78.6016 19.5151C78.4648 19.6616 78.2671 19.7349 78.0083 19.7349C77.7446 19.7349 77.5444 19.6616 77.4077 19.5151C77.2759 19.3638 77.21 19.1831 77.21 18.9731ZM82.6592 29H81.3042V20.3867C81.3042 19.7861 81.4214 19.2783 81.6558 18.8633C81.8901 18.4482 82.2246 18.1333 82.6592 17.9185C83.0938 17.7036 83.6089 17.5962 84.2046 17.5962C84.5562 17.5962 84.9004 17.6401 85.2373 17.728C85.5742 17.811 85.9209 17.916 86.2773 18.043L86.0503 19.1855C85.8257 19.0977 85.5645 19.0146 85.2666 18.9365C84.9736 18.8535 84.6514 18.812 84.2998 18.812C83.7188 18.812 83.2988 18.9438 83.04 19.2075C82.7861 19.4663 82.6592 19.8594 82.6592 20.3867V29ZM84.2778 21.0752V22.1152H80.0518V21.0752H84.2778ZM86.9438 21.0752V29H85.5889V21.0752H86.9438ZM92.3418 28.0332C92.6641 28.0332 92.9619 27.9673 93.2354 27.8354C93.5088 27.7036 93.7334 27.5229 93.9092 27.2935C94.085 27.0591 94.1851 26.793 94.2095 26.4951H95.4985C95.4741 26.9639 95.3154 27.4009 95.0225 27.8062C94.7344 28.2065 94.356 28.5312 93.8872 28.7803C93.4185 29.0244 92.9033 29.1465 92.3418 29.1465C91.7461 29.1465 91.2261 29.0415 90.7817 28.8315C90.3423 28.6216 89.9761 28.3335 89.6831 27.9673C89.395 27.6011 89.1777 27.1812 89.0312 26.7075C88.8896 26.229 88.8188 25.7236 88.8188 25.1914V24.8838C88.8188 24.3516 88.8896 23.8486 89.0312 23.375C89.1777 22.8965 89.395 22.4741 89.6831 22.1079C89.9761 21.7417 90.3423 21.4536 90.7817 21.2437C91.2261 21.0337 91.7461 20.9287 92.3418 20.9287C92.9619 20.9287 93.5039 21.0557 93.9678 21.3096C94.4316 21.5586 94.7954 21.9004 95.0591 22.335C95.3276 22.7646 95.4741 23.2529 95.4985 23.7998H94.2095C94.1851 23.4727 94.0923 23.1772 93.9312 22.9136C93.7749 22.6499 93.5601 22.4399 93.2866 22.2837C93.0181 22.1226 92.7031 22.042 92.3418 22.042C91.9268 22.042 91.5776 22.125 91.2944 22.291C91.0161 22.4521 90.7939 22.6719 90.6279 22.9502C90.4668 23.2236 90.3496 23.5288 90.2764 23.8657C90.208 24.1978 90.1738 24.5371 90.1738 24.8838V25.1914C90.1738 25.5381 90.208 25.8799 90.2764 26.2168C90.3447 26.5537 90.4595 26.8589 90.6206 27.1323C90.7866 27.4058 91.0088 27.6255 91.2871 27.7915C91.5703 27.9526 91.9219 28.0332 92.3418 28.0332ZM101.695 27.645V23.5654C101.695 23.2529 101.631 22.9819 101.504 22.7524C101.382 22.5181 101.197 22.3374 100.948 22.2104C100.699 22.0835 100.391 22.02 100.025 22.02C99.6831 22.02 99.3828 22.0786 99.124 22.1958C98.8701 22.313 98.6699 22.4668 98.5234 22.6572C98.3818 22.8477 98.311 23.0527 98.311 23.2725H96.9561C96.9561 22.9893 97.0293 22.7085 97.1758 22.4302C97.3223 22.1519 97.5322 21.9004 97.8057 21.6758C98.084 21.4463 98.416 21.2656 98.8018 21.1338C99.1924 20.9971 99.627 20.9287 100.105 20.9287C100.682 20.9287 101.189 21.0264 101.629 21.2217C102.073 21.417 102.42 21.7124 102.669 22.1079C102.923 22.4985 103.05 22.9893 103.05 23.5801V27.2715C103.05 27.5352 103.072 27.8159 103.116 28.1138C103.165 28.4116 103.235 28.668 103.328 28.8828V29H101.915C101.846 28.8438 101.792 28.6362 101.753 28.3774C101.714 28.1138 101.695 27.8696 101.695 27.645ZM101.929 24.1953L101.944 25.1475H100.574C100.188 25.1475 99.8442 25.1792 99.5415 25.2427C99.2388 25.3013 98.9849 25.3916 98.7798 25.5137C98.5747 25.6357 98.4185 25.7896 98.311 25.9751C98.2036 26.1558 98.1499 26.3682 98.1499 26.6123C98.1499 26.8613 98.2061 27.0884 98.3184 27.2935C98.4307 27.4985 98.5991 27.6621 98.8237 27.7842C99.0532 27.9014 99.334 27.96 99.666 27.96C100.081 27.96 100.447 27.8721 100.765 27.6963C101.082 27.5205 101.333 27.3057 101.519 27.0518C101.709 26.7979 101.812 26.5513 101.827 26.312L102.405 26.9639C102.371 27.1689 102.278 27.396 102.127 27.645C101.976 27.894 101.773 28.1333 101.519 28.3628C101.27 28.5874 100.972 28.7754 100.625 28.9268C100.284 29.0732 99.8979 29.1465 99.4683 29.1465C98.9312 29.1465 98.46 29.0415 98.0547 28.8315C97.6543 28.6216 97.3418 28.3408 97.1172 27.9893C96.8975 27.6328 96.7876 27.2349 96.7876 26.7954C96.7876 26.3706 96.8706 25.9971 97.0366 25.6748C97.2026 25.3477 97.4419 25.0767 97.7544 24.8618C98.0669 24.6421 98.4429 24.4761 98.8823 24.3638C99.3218 24.2515 99.8125 24.1953 100.354 24.1953H101.929ZM108.499 21.0752V22.1152H104.214V21.0752H108.499ZM105.665 19.1489H107.02V27.0371C107.02 27.3057 107.061 27.5083 107.144 27.645C107.227 27.7817 107.334 27.8721 107.466 27.916C107.598 27.96 107.74 27.9819 107.891 27.9819C108.003 27.9819 108.121 27.9722 108.243 27.9526C108.37 27.9282 108.465 27.9087 108.528 27.894L108.536 29C108.428 29.0342 108.287 29.0659 108.111 29.0952C107.94 29.1294 107.732 29.1465 107.488 29.1465C107.156 29.1465 106.851 29.0806 106.573 28.9487C106.294 28.8169 106.072 28.5972 105.906 28.2896C105.745 27.9771 105.665 27.5571 105.665 27.0298V19.1489ZM111.561 21.0752V29H110.198V21.0752H111.561ZM110.096 18.9731C110.096 18.7534 110.162 18.5679 110.293 18.4165C110.43 18.2651 110.63 18.1895 110.894 18.1895C111.153 18.1895 111.351 18.2651 111.487 18.4165C111.629 18.5679 111.7 18.7534 111.7 18.9731C111.7 19.1831 111.629 19.3638 111.487 19.5151C111.351 19.6616 111.153 19.7349 110.894 19.7349C110.63 19.7349 110.43 19.6616 110.293 19.5151C110.162 19.3638 110.096 19.1831 110.096 18.9731ZM113.377 25.1255V24.957C113.377 24.3857 113.46 23.856 113.626 23.3677C113.792 22.8745 114.031 22.4473 114.344 22.0859C114.656 21.7197 115.035 21.4365 115.479 21.2363C115.923 21.0312 116.421 20.9287 116.973 20.9287C117.53 20.9287 118.03 21.0312 118.475 21.2363C118.924 21.4365 119.305 21.7197 119.617 22.0859C119.935 22.4473 120.176 22.8745 120.342 23.3677C120.508 23.856 120.591 24.3857 120.591 24.957V25.1255C120.591 25.6968 120.508 26.2266 120.342 26.7148C120.176 27.2031 119.935 27.6304 119.617 27.9966C119.305 28.3579 118.926 28.6411 118.482 28.8462C118.042 29.0464 117.544 29.1465 116.988 29.1465C116.431 29.1465 115.931 29.0464 115.486 28.8462C115.042 28.6411 114.661 28.3579 114.344 27.9966C114.031 27.6304 113.792 27.2031 113.626 26.7148C113.46 26.2266 113.377 25.6968 113.377 25.1255ZM114.732 24.957V25.1255C114.732 25.521 114.778 25.8945 114.871 26.2461C114.964 26.5928 115.103 26.9004 115.289 27.1689C115.479 27.4375 115.716 27.6499 115.999 27.8062C116.282 27.9575 116.612 28.0332 116.988 28.0332C117.359 28.0332 117.684 27.9575 117.962 27.8062C118.245 27.6499 118.479 27.4375 118.665 27.1689C118.851 26.9004 118.99 26.5928 119.083 26.2461C119.18 25.8945 119.229 25.521 119.229 25.1255V24.957C119.229 24.5664 119.18 24.1978 119.083 23.8511C118.99 23.4995 118.848 23.1895 118.658 22.9209C118.472 22.6475 118.238 22.4326 117.955 22.2764C117.676 22.1201 117.349 22.042 116.973 22.042C116.602 22.042 116.275 22.1201 115.992 22.2764C115.713 22.4326 115.479 22.6475 115.289 22.9209C115.103 23.1895 114.964 23.4995 114.871 23.8511C114.778 24.1978 114.732 24.5664 114.732 24.957ZM123.646 22.7671V29H122.291V21.0752H123.572L123.646 22.7671ZM123.323 24.7373L122.759 24.7153C122.764 24.1733 122.845 23.6729 123.001 23.2139C123.157 22.75 123.377 22.3472 123.66 22.0054C123.943 21.6636 124.28 21.3999 124.671 21.2144C125.066 21.0239 125.503 20.9287 125.982 20.9287C126.373 20.9287 126.724 20.9824 127.037 21.0898C127.349 21.1924 127.615 21.3584 127.835 21.5879C128.06 21.8174 128.23 22.1152 128.348 22.4814C128.465 22.8428 128.523 23.2847 128.523 23.8071V29H127.161V23.7925C127.161 23.3774 127.1 23.0454 126.978 22.7964C126.856 22.5425 126.678 22.3594 126.443 22.2471C126.209 22.1299 125.921 22.0713 125.579 22.0713C125.242 22.0713 124.935 22.1421 124.656 22.2837C124.383 22.4253 124.146 22.6206 123.946 22.8696C123.75 23.1187 123.597 23.4043 123.484 23.7266C123.377 24.0439 123.323 24.3809 123.323 24.7373ZM135.196 26.8979C135.196 26.7026 135.152 26.522 135.064 26.356C134.981 26.1851 134.808 26.0312 134.544 25.8945C134.285 25.7529 133.895 25.6309 133.372 25.5283C132.933 25.4355 132.535 25.3257 132.178 25.1987C131.827 25.0718 131.526 24.918 131.277 24.7373C131.033 24.5566 130.845 24.3442 130.713 24.1001C130.582 23.856 130.516 23.5703 130.516 23.2432C130.516 22.9307 130.584 22.6353 130.721 22.3569C130.862 22.0786 131.06 21.832 131.314 21.6172C131.573 21.4023 131.883 21.2339 132.244 21.1118C132.605 20.9897 133.008 20.9287 133.453 20.9287C134.087 20.9287 134.629 21.041 135.079 21.2656C135.528 21.4902 135.872 21.7905 136.111 22.1665C136.351 22.5376 136.47 22.9502 136.47 23.4043H135.115C135.115 23.1846 135.049 22.9722 134.917 22.7671C134.791 22.5571 134.603 22.3838 134.354 22.2471C134.109 22.1104 133.809 22.042 133.453 22.042C133.077 22.042 132.771 22.1006 132.537 22.2178C132.308 22.3301 132.139 22.4741 132.032 22.6499C131.929 22.8257 131.878 23.0112 131.878 23.2065C131.878 23.353 131.902 23.4849 131.951 23.6021C132.005 23.7144 132.098 23.8193 132.229 23.917C132.361 24.0098 132.547 24.0977 132.786 24.1807C133.025 24.2637 133.331 24.3467 133.702 24.4297C134.351 24.5762 134.886 24.752 135.306 24.957C135.726 25.1621 136.038 25.4136 136.243 25.7114C136.448 26.0093 136.551 26.3706 136.551 26.7954C136.551 27.1421 136.478 27.4595 136.331 27.7476C136.189 28.0356 135.982 28.2847 135.708 28.4946C135.44 28.6997 135.118 28.8608 134.742 28.978C134.371 29.0903 133.953 29.1465 133.489 29.1465C132.791 29.1465 132.2 29.022 131.717 28.7729C131.233 28.5239 130.867 28.2017 130.618 27.8062C130.369 27.4106 130.245 26.9932 130.245 26.5537H131.607C131.626 26.9248 131.734 27.2202 131.929 27.4399C132.125 27.6548 132.364 27.8086 132.647 27.9014C132.93 27.9893 133.211 28.0332 133.489 28.0332C133.86 28.0332 134.17 27.9844 134.419 27.8867C134.673 27.7891 134.866 27.6548 134.998 27.4839C135.13 27.313 135.196 27.1177 135.196 26.8979Z" fill="#262626"/>
</g>
<defs>
<clipPath id="clip0_1_502">
<rect width="24" height="24" fill="white" transform="translate(12 12)"/>
</clipPath>
<clipPath id="clip1_1_502">
<rect width="105.578" height="24" fill="white" transform="translate(36 12)"/>
</clipPath>
</defs>
</svg>
