<svg width="220" height="48" viewBox="0 0 220 48" fill="none" xmlns="http://www.w3.org/2000/svg">
<g clip-path="url(#clip0_1_483)">
<path d="M14.0488 19.002H33.9498" stroke="#262626" stroke-width="2" stroke-linejoin="round"/>
<path d="M25.5039 14.001L28.3619 19.002" stroke="#262626" stroke-width="2" stroke-linecap="round" stroke-linejoin="round"/>
<path d="M19.207 14.11L22.002 19.002" stroke="#262626" stroke-width="2" stroke-linecap="round" stroke-linejoin="round"/>
<path d="M14 24.001V27.45C14 30.299 14.698 31.456 15.606 32.395C16.546 33.303 17.704 34.002 20.552 34.002H27.448C30.296 34.002 31.454 33.303 32.394 32.395C33.302 31.456 34 30.299 34 27.45V20.552C34 17.704 33.302 16.546 32.394 15.607C31.454 14.699 30.296 14 27.448 14H20.552C17.704 14 16.546 14.699 15.606 15.607C14.698 16.546 14 17.704 14 20.552V24.001Z" stroke="#262626" stroke-width="2" stroke-linecap="round" stroke-linejoin="round"/>
<path fill-rule="evenodd" clip-rule="evenodd" d="M21.7631 29.664C21.625 29.5843 21.5103 29.4696 21.4306 29.3314C21.3509 29.1933 21.309 29.0365 21.3091 28.877V23.63C21.3089 23.4703 21.3508 23.3134 21.4305 23.175C21.5103 23.0367 21.6251 22.9218 21.7634 22.8419C21.9017 22.762 22.0585 22.7199 22.2182 22.72C22.378 22.72 22.5348 22.7621 22.6731 22.842L27.2181 25.466C27.3564 25.5458 27.4713 25.6606 27.5511 25.7988C27.631 25.937 27.6731 26.0939 27.6731 26.2535C27.6731 26.4132 27.631 26.57 27.5511 26.7083C27.4713 26.8465 27.3564 26.9613 27.2181 27.041L22.6731 29.665C22.5347 29.7449 22.3778 29.787 22.2181 29.787C22.0583 29.787 21.9014 29.7449 21.7631 29.665V29.664Z" fill="#262626"/>
</g>
<g clip-path="url(#clip1_1_483)">
<g clip-path="url(#clip2_1_483)">
<path d="M53.2378 18.3359H56.7681C57.5688 18.3359 58.2451 18.458 58.7969 18.7021C59.3535 18.9463 59.7759 19.3076 60.064 19.7861C60.3569 20.2598 60.5034 20.8433 60.5034 21.5366C60.5034 22.0249 60.4033 22.4717 60.2031 22.877C60.0078 23.2773 59.7246 23.6191 59.3535 23.9023C58.9873 24.1807 58.5479 24.3882 58.0352 24.5249L57.6396 24.6787H54.3218L54.3071 23.5288H56.812C57.3198 23.5288 57.7422 23.4409 58.0791 23.2651C58.416 23.0845 58.6699 22.8428 58.8408 22.54C59.0117 22.2373 59.0972 21.9028 59.0972 21.5366C59.0972 21.1265 59.0166 20.7676 58.8555 20.46C58.6943 20.1523 58.4404 19.9155 58.0938 19.7495C57.752 19.5786 57.3101 19.4932 56.7681 19.4932H54.6514V29H53.2378V18.3359ZM59.4707 29L56.8779 24.166L58.3501 24.1587L60.9795 28.9121V29H59.4707ZM65.5645 29.1465C65.0127 29.1465 64.5122 29.0537 64.063 28.8682C63.6187 28.6777 63.2354 28.4116 62.9131 28.0698C62.5957 27.728 62.3516 27.3228 62.1807 26.854C62.0098 26.3853 61.9243 25.8726 61.9243 25.3159V25.0083C61.9243 24.3638 62.0195 23.79 62.21 23.2871C62.4004 22.7793 62.6592 22.3496 62.9863 21.998C63.3135 21.6465 63.6846 21.3804 64.0996 21.1997C64.5146 21.019 64.9443 20.9287 65.3887 20.9287C65.9551 20.9287 66.4434 21.0264 66.8535 21.2217C67.2686 21.417 67.6079 21.6904 67.8716 22.042C68.1353 22.3887 68.3306 22.7988 68.4575 23.2725C68.5845 23.7412 68.6479 24.2539 68.6479 24.8105V25.4185H62.73V24.3125H67.293V24.21C67.2734 23.8584 67.2002 23.5166 67.0732 23.1846C66.9512 22.8525 66.7559 22.5791 66.4873 22.3643C66.2188 22.1494 65.8525 22.042 65.3887 22.042C65.0811 22.042 64.7979 22.1079 64.5391 22.2397C64.2803 22.3667 64.0581 22.5571 63.8726 22.811C63.687 23.0649 63.543 23.375 63.4404 23.7412C63.3379 24.1074 63.2866 24.5298 63.2866 25.0083V25.3159C63.2866 25.6919 63.3379 26.0459 63.4404 26.3779C63.5479 26.7051 63.7017 26.9932 63.9019 27.2422C64.1069 27.4912 64.3535 27.6865 64.6416 27.8281C64.9346 27.9697 65.2666 28.0405 65.6377 28.0405C66.1162 28.0405 66.5215 27.9429 66.8535 27.7476C67.1855 27.5522 67.4761 27.291 67.7251 26.9639L68.5454 27.6157C68.3745 27.8745 68.1572 28.1211 67.8936 28.3555C67.6299 28.5898 67.3052 28.7803 66.9194 28.9268C66.5386 29.0732 66.0869 29.1465 65.5645 29.1465ZM73.5186 29.1465C72.9668 29.1465 72.4663 29.0537 72.0171 28.8682C71.5728 28.6777 71.1895 28.4116 70.8672 28.0698C70.5498 27.728 70.3057 27.3228 70.1348 26.854C69.9639 26.3853 69.8784 25.8726 69.8784 25.3159V25.0083C69.8784 24.3638 69.9736 23.79 70.1641 23.2871C70.3545 22.7793 70.6133 22.3496 70.9404 21.998C71.2676 21.6465 71.6387 21.3804 72.0537 21.1997C72.4688 21.019 72.8984 20.9287 73.3428 20.9287C73.9092 20.9287 74.3975 21.0264 74.8076 21.2217C75.2227 21.417 75.562 21.6904 75.8257 22.042C76.0894 22.3887 76.2847 22.7988 76.4116 23.2725C76.5386 23.7412 76.6021 24.2539 76.6021 24.8105V25.4185H70.6841V24.3125H75.2471V24.21C75.2275 23.8584 75.1543 23.5166 75.0273 23.1846C74.9053 22.8525 74.71 22.5791 74.4414 22.3643C74.1729 22.1494 73.8066 22.042 73.3428 22.042C73.0352 22.042 72.752 22.1079 72.4932 22.2397C72.2344 22.3667 72.0122 22.5571 71.8267 22.811C71.6411 23.0649 71.4971 23.375 71.3945 23.7412C71.292 24.1074 71.2407 24.5298 71.2407 25.0083V25.3159C71.2407 25.6919 71.292 26.0459 71.3945 26.3779C71.502 26.7051 71.6558 26.9932 71.856 27.2422C72.061 27.4912 72.3076 27.6865 72.5957 27.8281C72.8887 27.9697 73.2207 28.0405 73.5918 28.0405C74.0703 28.0405 74.4756 27.9429 74.8076 27.7476C75.1396 27.5522 75.4302 27.291 75.6792 26.9639L76.4995 27.6157C76.3286 27.8745 76.1113 28.1211 75.8477 28.3555C75.584 28.5898 75.2593 28.7803 74.8735 28.9268C74.4927 29.0732 74.041 29.1465 73.5186 29.1465ZM79.6562 17.75V29H78.2939V17.75H79.6562ZM86.4458 26.8979C86.4458 26.7026 86.4019 26.522 86.314 26.356C86.231 26.1851 86.0576 26.0312 85.7939 25.8945C85.5352 25.7529 85.1445 25.6309 84.6221 25.5283C84.1826 25.4355 83.7847 25.3257 83.4282 25.1987C83.0767 25.0718 82.7764 24.918 82.5273 24.7373C82.2832 24.5566 82.0952 24.3442 81.9634 24.1001C81.8315 23.856 81.7656 23.5703 81.7656 23.2432C81.7656 22.9307 81.834 22.6353 81.9707 22.3569C82.1123 22.0786 82.3101 21.832 82.564 21.6172C82.8228 21.4023 83.1328 21.2339 83.4941 21.1118C83.8555 20.9897 84.2583 20.9287 84.7026 20.9287C85.3374 20.9287 85.8794 21.041 86.3286 21.2656C86.7778 21.4902 87.1221 21.7905 87.3613 22.1665C87.6006 22.5376 87.7202 22.9502 87.7202 23.4043H86.3652C86.3652 23.1846 86.2993 22.9722 86.1675 22.7671C86.0405 22.5571 85.8525 22.3838 85.6035 22.2471C85.3594 22.1104 85.0591 22.042 84.7026 22.042C84.3267 22.042 84.0215 22.1006 83.7871 22.2178C83.5576 22.3301 83.3892 22.4741 83.2817 22.6499C83.1792 22.8257 83.1279 23.0112 83.1279 23.2065C83.1279 23.353 83.1523 23.4849 83.2012 23.6021C83.2549 23.7144 83.3477 23.8193 83.4795 23.917C83.6113 24.0098 83.7969 24.0977 84.0361 24.1807C84.2754 24.2637 84.5806 24.3467 84.9517 24.4297C85.6011 24.5762 86.1357 24.752 86.5557 24.957C86.9756 25.1621 87.2881 25.4136 87.4932 25.7114C87.6982 26.0093 87.8008 26.3706 87.8008 26.7954C87.8008 27.1421 87.7275 27.4595 87.5811 27.7476C87.4395 28.0356 87.2319 28.2847 86.9585 28.4946C86.6899 28.6997 86.3677 28.8608 85.9917 28.978C85.6206 29.0903 85.2031 29.1465 84.7393 29.1465C84.041 29.1465 83.4502 29.022 82.9668 28.7729C82.4834 28.5239 82.1172 28.2017 81.8682 27.8062C81.6191 27.4106 81.4946 26.9932 81.4946 26.5537H82.8569C82.8765 26.9248 82.9839 27.2202 83.1792 27.4399C83.3745 27.6548 83.6138 27.8086 83.897 27.9014C84.1802 27.9893 84.4609 28.0332 84.7393 28.0332C85.1104 28.0332 85.4204 27.9844 85.6694 27.8867C85.9233 27.7891 86.1162 27.6548 86.248 27.4839C86.3799 27.313 86.4458 27.1177 86.4458 26.8979Z" fill="#262626"/>
</g>
</g>
<defs>
<clipPath id="clip0_1_483">
<rect width="24" height="24" fill="white" transform="translate(12 12)"/>
</clipPath>
<clipPath id="clip1_1_483">
<rect width="52.5" height="24" fill="white" transform="translate(36 12)"/>
</clipPath>
<clipPath id="clip2_1_483">
<rect width="37" height="24" fill="white" transform="translate(52 12)"/>
</clipPath>
</defs>
</svg>
