<svg width="220" height="48" viewBox="0 0 220 48" fill="none" xmlns="http://www.w3.org/2000/svg">
<g clip-path="url(#clip0_1_466)">
<path d="M31 22.5C31 24.1811 30.5015 25.8245 29.5675 27.2223C28.6335 28.6202 27.306 29.7096 25.7528 30.353C24.1996 30.9963 22.4906 31.1647 20.8417 30.8367C19.1929 30.5087 17.6783 29.6992 16.4896 28.5104C15.3009 27.3217 14.4913 25.8071 14.1633 24.1583C13.8354 22.5094 14.0037 20.8004 14.647 19.2472C15.2904 17.694 16.3798 16.3665 17.7777 15.4325C19.1755 14.4985 20.8189 14 22.5 14C24.7543 14 26.9164 14.8955 28.5104 16.4896C30.1045 18.0837 31 20.2457 31 22.5Z" stroke="#262626" stroke-width="2" stroke-linecap="round" stroke-linejoin="round"/>
<path d="M28.5112 28.511L34.0002 34" stroke="#262626" stroke-width="2" stroke-linecap="round" stroke-linejoin="round"/>
</g>
<g clip-path="url(#clip1_1_466)">
<path d="M58.9214 26.3047C58.9214 26.0557 58.8823 25.8359 58.8042 25.6455C58.731 25.4502 58.5991 25.2744 58.4087 25.1182C58.2231 24.9619 57.9644 24.813 57.6323 24.6714C57.3052 24.5298 56.8901 24.3857 56.3872 24.2393C55.8599 24.083 55.3838 23.9097 54.959 23.7192C54.5342 23.5239 54.1704 23.3018 53.8677 23.0527C53.5649 22.8037 53.333 22.5181 53.1719 22.1958C53.0107 21.8735 52.9302 21.5049 52.9302 21.0898C52.9302 20.6748 53.0156 20.2915 53.1865 19.9399C53.3574 19.5884 53.6016 19.2832 53.9189 19.0244C54.2412 18.7607 54.6245 18.5557 55.0688 18.4092C55.5132 18.2627 56.0088 18.1895 56.5557 18.1895C57.3564 18.1895 58.0352 18.3433 58.5918 18.6509C59.1533 18.9536 59.5806 19.3516 59.8735 19.8447C60.1665 20.333 60.313 20.8555 60.313 21.4121H58.9067C58.9067 21.0117 58.8213 20.6577 58.6504 20.3501C58.4795 20.0376 58.2207 19.7935 57.874 19.6177C57.5273 19.437 57.0879 19.3467 56.5557 19.3467C56.0527 19.3467 55.6377 19.4224 55.3105 19.5737C54.9834 19.7251 54.7393 19.9302 54.5781 20.189C54.4219 20.4478 54.3438 20.7432 54.3438 21.0752C54.3438 21.2998 54.3901 21.5049 54.4829 21.6904C54.5806 21.8711 54.7295 22.0396 54.9297 22.1958C55.1348 22.3521 55.3936 22.4961 55.7061 22.6279C56.0234 22.7598 56.4019 22.8867 56.8413 23.0088C57.4468 23.1797 57.9692 23.3701 58.4087 23.5801C58.8481 23.79 59.2095 24.0269 59.4927 24.2905C59.7808 24.5493 59.9932 24.8447 60.1299 25.1768C60.2715 25.5039 60.3423 25.875 60.3423 26.29C60.3423 26.7246 60.2544 27.1177 60.0786 27.4692C59.9028 27.8208 59.6514 28.1211 59.3242 28.3701C58.9971 28.6191 58.604 28.812 58.145 28.9487C57.6909 29.0806 57.1831 29.1465 56.6216 29.1465C56.1284 29.1465 55.6426 29.0781 55.1641 28.9414C54.6904 28.8047 54.2583 28.5996 53.8677 28.3262C53.4819 28.0527 53.1719 27.7158 52.9375 27.3154C52.708 26.9102 52.5933 26.4414 52.5933 25.9092H53.9995C53.9995 26.2754 54.0703 26.5903 54.2119 26.854C54.3535 27.1128 54.5464 27.3276 54.7905 27.4985C55.0396 27.6694 55.3203 27.7964 55.6328 27.8794C55.9502 27.9575 56.2798 27.9966 56.6216 27.9966C57.1147 27.9966 57.5322 27.9282 57.874 27.7915C58.2158 27.6548 58.4746 27.4595 58.6504 27.2056C58.8311 26.9517 58.9214 26.6514 58.9214 26.3047ZM65.2275 29.1465C64.6758 29.1465 64.1753 29.0537 63.7261 28.8682C63.2817 28.6777 62.8984 28.4116 62.5762 28.0698C62.2588 27.728 62.0146 27.3228 61.8438 26.854C61.6729 26.3853 61.5874 25.8726 61.5874 25.3159V25.0083C61.5874 24.3638 61.6826 23.79 61.873 23.2871C62.0635 22.7793 62.3223 22.3496 62.6494 21.998C62.9766 21.6465 63.3477 21.3804 63.7627 21.1997C64.1777 21.019 64.6074 20.9287 65.0518 20.9287C65.6182 20.9287 66.1064 21.0264 66.5166 21.2217C66.9316 21.417 67.271 21.6904 67.5347 22.042C67.7983 22.3887 67.9937 22.7988 68.1206 23.2725C68.2476 23.7412 68.311 24.2539 68.311 24.8105V25.4185H62.3931V24.3125H66.9561V24.21C66.9365 23.8584 66.8633 23.5166 66.7363 23.1846C66.6143 22.8525 66.4189 22.5791 66.1504 22.3643C65.8818 22.1494 65.5156 22.042 65.0518 22.042C64.7441 22.042 64.4609 22.1079 64.2021 22.2397C63.9434 22.3667 63.7212 22.5571 63.5356 22.811C63.3501 23.0649 63.2061 23.375 63.1035 23.7412C63.001 24.1074 62.9497 24.5298 62.9497 25.0083V25.3159C62.9497 25.6919 63.001 26.0459 63.1035 26.3779C63.2109 26.7051 63.3647 26.9932 63.5649 27.2422C63.77 27.4912 64.0166 27.6865 64.3047 27.8281C64.5977 27.9697 64.9297 28.0405 65.3008 28.0405C65.7793 28.0405 66.1846 27.9429 66.5166 27.7476C66.8486 27.5522 67.1392 27.291 67.3882 26.9639L68.2085 27.6157C68.0376 27.8745 67.8203 28.1211 67.5566 28.3555C67.293 28.5898 66.9683 28.7803 66.5825 28.9268C66.2017 29.0732 65.75 29.1465 65.2275 29.1465ZM74.5659 27.645V23.5654C74.5659 23.2529 74.5024 22.9819 74.3755 22.7524C74.2534 22.5181 74.0679 22.3374 73.8188 22.2104C73.5698 22.0835 73.2622 22.02 72.896 22.02C72.5542 22.02 72.2539 22.0786 71.9951 22.1958C71.7412 22.313 71.541 22.4668 71.3945 22.6572C71.2529 22.8477 71.1821 23.0527 71.1821 23.2725H69.8271C69.8271 22.9893 69.9004 22.7085 70.0469 22.4302C70.1934 22.1519 70.4033 21.9004 70.6768 21.6758C70.9551 21.4463 71.2871 21.2656 71.6729 21.1338C72.0635 20.9971 72.498 20.9287 72.9766 20.9287C73.5527 20.9287 74.0605 21.0264 74.5 21.2217C74.9443 21.417 75.291 21.7124 75.54 22.1079C75.7939 22.4985 75.9209 22.9893 75.9209 23.5801V27.2715C75.9209 27.5352 75.9429 27.8159 75.9868 28.1138C76.0356 28.4116 76.1064 28.668 76.1992 28.8828V29H74.7856C74.7173 28.8438 74.6636 28.6362 74.6245 28.3774C74.5854 28.1138 74.5659 27.8696 74.5659 27.645ZM74.8003 24.1953L74.8149 25.1475H73.4453C73.0596 25.1475 72.7153 25.1792 72.4126 25.2427C72.1099 25.3013 71.856 25.3916 71.6509 25.5137C71.4458 25.6357 71.2896 25.7896 71.1821 25.9751C71.0747 26.1558 71.021 26.3682 71.021 26.6123C71.021 26.8613 71.0771 27.0884 71.1895 27.2935C71.3018 27.4985 71.4702 27.6621 71.6948 27.7842C71.9243 27.9014 72.2051 27.96 72.5371 27.96C72.9521 27.96 73.3184 27.8721 73.6357 27.6963C73.9531 27.5205 74.2046 27.3057 74.3901 27.0518C74.5806 26.7979 74.6831 26.5513 74.6978 26.312L75.2764 26.9639C75.2422 27.1689 75.1494 27.396 74.998 27.645C74.8467 27.894 74.644 28.1333 74.3901 28.3628C74.1411 28.5874 73.8433 28.7754 73.4966 28.9268C73.1548 29.0732 72.769 29.1465 72.3394 29.1465C71.8022 29.1465 71.3311 29.0415 70.9258 28.8315C70.5254 28.6216 70.2129 28.3408 69.9883 27.9893C69.7686 27.6328 69.6587 27.2349 69.6587 26.7954C69.6587 26.3706 69.7417 25.9971 69.9077 25.6748C70.0737 25.3477 70.313 25.0767 70.6255 24.8618C70.938 24.6421 71.314 24.4761 71.7534 24.3638C72.1929 24.2515 72.6836 24.1953 73.2256 24.1953H74.8003ZM79.4072 22.3203V29H78.0522V21.0752H79.3706L79.4072 22.3203ZM81.8828 21.0312L81.8755 22.291C81.7632 22.2666 81.6558 22.252 81.5532 22.2471C81.4556 22.2373 81.3433 22.2324 81.2163 22.2324C80.9038 22.2324 80.6279 22.2812 80.3887 22.3789C80.1494 22.4766 79.9468 22.6133 79.7808 22.7891C79.6147 22.9648 79.4829 23.1748 79.3853 23.4189C79.2925 23.6582 79.2314 23.9219 79.2021 24.21L78.8213 24.4297C78.8213 23.9512 78.8677 23.502 78.9604 23.082C79.0581 22.6621 79.207 22.291 79.4072 21.9688C79.6074 21.6416 79.8613 21.3877 80.1689 21.207C80.4814 21.0215 80.8525 20.9287 81.2822 20.9287C81.3799 20.9287 81.4922 20.9409 81.6191 20.9653C81.7461 20.9849 81.834 21.0068 81.8828 21.0312ZM86.1602 28.0332C86.4824 28.0332 86.7803 27.9673 87.0537 27.8354C87.3271 27.7036 87.5518 27.5229 87.7275 27.2935C87.9033 27.0591 88.0034 26.793 88.0278 26.4951H89.3169C89.2925 26.9639 89.1338 27.4009 88.8408 27.8062C88.5527 28.2065 88.1743 28.5312 87.7056 28.7803C87.2368 29.0244 86.7217 29.1465 86.1602 29.1465C85.5645 29.1465 85.0444 29.0415 84.6001 28.8315C84.1606 28.6216 83.7944 28.3335 83.5015 27.9673C83.2134 27.6011 82.9961 27.1812 82.8496 26.7075C82.708 26.229 82.6372 25.7236 82.6372 25.1914V24.8838C82.6372 24.3516 82.708 23.8486 82.8496 23.375C82.9961 22.8965 83.2134 22.4741 83.5015 22.1079C83.7944 21.7417 84.1606 21.4536 84.6001 21.2437C85.0444 21.0337 85.5645 20.9287 86.1602 20.9287C86.7803 20.9287 87.3223 21.0557 87.7861 21.3096C88.25 21.5586 88.6138 21.9004 88.8774 22.335C89.146 22.7646 89.2925 23.2529 89.3169 23.7998H88.0278C88.0034 23.4727 87.9106 23.1772 87.7495 22.9136C87.5933 22.6499 87.3784 22.4399 87.105 22.2837C86.8364 22.1226 86.5215 22.042 86.1602 22.042C85.7451 22.042 85.396 22.125 85.1128 22.291C84.8345 22.4521 84.6123 22.6719 84.4463 22.9502C84.2852 23.2236 84.168 23.5288 84.0947 23.8657C84.0264 24.1978 83.9922 24.5371 83.9922 24.8838V25.1914C83.9922 25.5381 84.0264 25.8799 84.0947 26.2168C84.1631 26.5537 84.2778 26.8589 84.439 27.1323C84.605 27.4058 84.8271 27.6255 85.1055 27.7915C85.3887 27.9526 85.7402 28.0332 86.1602 28.0332ZM92.1953 17.75V29H90.8403V17.75H92.1953ZM91.873 24.7373L91.3091 24.7153C91.314 24.1733 91.3945 23.6729 91.5508 23.2139C91.707 22.75 91.9268 22.3472 92.21 22.0054C92.4932 21.6636 92.8301 21.3999 93.2207 21.2144C93.6162 21.0239 94.0532 20.9287 94.5317 20.9287C94.9224 20.9287 95.2739 20.9824 95.5864 21.0898C95.8989 21.1924 96.165 21.3584 96.3848 21.5879C96.6094 21.8174 96.7803 22.1152 96.8975 22.4814C97.0146 22.8428 97.0732 23.2847 97.0732 23.8071V29H95.7109V23.7925C95.7109 23.3774 95.6499 23.0454 95.5278 22.7964C95.4058 22.5425 95.2275 22.3594 94.9932 22.2471C94.7588 22.1299 94.4707 22.0713 94.1289 22.0713C93.792 22.0713 93.4844 22.1421 93.2061 22.2837C92.9326 22.4253 92.6958 22.6206 92.4956 22.8696C92.3003 23.1187 92.1465 23.4043 92.0342 23.7266C91.9268 24.0439 91.873 24.3809 91.873 24.7373Z" fill="#262626"/>
</g>
<defs>
<clipPath id="clip0_1_466">
<rect width="24" height="24" fill="white" transform="translate(12 12)"/>
</clipPath>
<clipPath id="clip1_1_466">
<rect width="63.0156" height="24" fill="white" transform="translate(36 12)"/>
</clipPath>
</defs>
</svg>
